<?xml version="1.0" encoding="utf-8"?>
<!-- Generator: Adobe Illustrator 14.0.0, SVG Export Plug-In . SVG Version: 6.00 Build 43363)  -->
<!DOCTYPE svg PUBLIC "-//W3C//DTD SVG 1.1//EN" "http://www.w3.org/Graphics/SVG/1.1/DTD/svg11.dtd">
<svg version="1.1" id="Layer_1" xmlns="http://www.w3.org/2000/svg" xmlns:xlink="http://www.w3.org/1999/xlink" x="0px" y="0px"
	 width="800px" height="600px" viewBox="0 0 800 600" enable-background="new 0 0 800 600" xml:space="preserve">
<g>
	<path d="M8.191,21.983l-4.934-0.012c-0.344,0-0.66-0.098-0.949-0.293C1.91,21.405,1.71,21.006,1.71,20.483
		c0-0.617,0.25-1.102,0.75-1.453c0.391-0.273,0.809-0.41,1.254-0.41c1.734,0,4.34,0.055,7.816,0.164
		c3.476,0.109,6.082,0.164,7.816,0.164c0.438,0,0.812,0.156,1.125,0.469s0.469,0.703,0.469,1.172c0,0.469-0.156,0.857-0.469,1.166
		s-0.688,0.463-1.125,0.463c-0.703,0-1.652-0.035-2.848-0.105c-1.391-0.086-2.34-0.137-2.848-0.152
		c0.516,0.547,2.688,2.574,6.516,6.082c0.391,0.359,0.586,0.773,0.586,1.242c0,0.445-0.156,0.834-0.469,1.166
		s-0.691,0.498-1.137,0.498c-0.484,0-1.742-0.93-3.773-2.789c-1.492-1.375-2.965-2.824-4.418-4.348
		c-0.805,0.852-1.609,1.707-2.414,2.566c-0.922,1-1.68,1.898-2.273,2.695c-0.289,0.398-0.508,0.828-0.656,1.289
		c-0.266,0.836-0.777,1.254-1.535,1.254c-0.336,0-0.66-0.105-0.973-0.316c-0.422-0.289-0.633-0.691-0.633-1.207
		c0-1.117,0.73-2.566,2.191-4.348C5.101,25.213,6.277,23.959,8.191,21.983z"/>
</g>
<g>
	<path d="M19.646,15.049c-0.008,0.461-0.166,0.848-0.475,1.16s-0.682,0.469-1.119,0.469c-0.781,0-1.953-0.037-3.516-0.111
		c-1.563-0.074-2.734-0.111-3.516-0.111c-0.867,0-2.168,0.018-3.902,0.053c-1.734,0.035-3.035,0.053-3.902,0.053
		c-0.43,0-0.857-0.207-1.283-0.621c-0.426-0.414-0.639-0.855-0.639-1.324c0-0.258,0.242-0.906,0.727-1.945
		c0.578-1.211,0.902-1.93,0.973-2.156c0.742-2.289,1.891-4.242,3.445-5.859c1.852-1.93,3.898-2.895,6.141-2.895
		c1.352,0,2.637,0.332,3.855,0.996c1.242,0.664,2.238,1.574,2.988,2.73c0.844,1.297,1.266,3.121,1.266,5.473
		c0,0.57-0.082,1.227-0.246,1.969C20.24,13.827,19.974,14.534,19.646,15.049z M7.599,8.463c-0.477,0.758-1.227,2.383-2.25,4.875
		h11.602c0.195-0.305,0.342-0.654,0.439-1.049c0.097-0.395,0.146-0.834,0.146-1.318c0-1.688-0.234-2.898-0.703-3.633
		c-0.445-0.695-1.051-1.248-1.816-1.658c-0.765-0.41-1.562-0.615-2.391-0.615C10.689,5.065,9.013,6.198,7.599,8.463z"/>
</g>
<g>
	<path d="M41.973,24.417c-0.042,0.083-0.073,0.156-0.094,0.219c-0.021,0.042-0.031,0.073-0.031,0.094
		c0,0.021-0.011,0.042-0.031,0.062c-0.021,0.021-0.031,0.042-0.031,0.062c-0.083,0.104-0.146,0.193-0.188,0.266
		c-0.042,0.073-0.104,0.13-0.188,0.172c-0.167,0.146-0.287,0.24-0.359,0.281c-0.073,0.042-0.13,0.083-0.172,0.125
		c-0.021,0.021-0.042,0.037-0.062,0.047c-0.021,0.011-0.052,0.037-0.094,0.078c-0.042,0.042-0.083,0.073-0.125,0.094
		c-0.042,0.021-0.094,0.031-0.156,0.031c-0.042,0.021-0.083,0.031-0.125,0.031c-0.042,0-0.073,0.011-0.094,0.031
		c-0.167,0.062-0.302,0.146-0.406,0.25c-0.083,0.042-0.162,0.068-0.234,0.078c-0.073,0.011-0.141,0.026-0.203,0.047
		c-0.188,0.104-0.328,0.167-0.422,0.188c-0.094,0.021-0.162,0.031-0.203,0.031l-0.75,0.281c-0.25,0.125-0.417,0.208-0.5,0.25
		c-0.083,0.042-0.136,0.062-0.156,0.062c-0.146,0.104-0.261,0.167-0.344,0.188c-0.167,0.062-0.271,0.099-0.312,0.109
		c-0.042,0.011-0.083,0.016-0.125,0.016c-0.167,0.083-0.271,0.141-0.312,0.172c-0.042,0.031-0.115,0.078-0.219,0.141
		c-0.125-0.062-0.208-0.099-0.25-0.109c-0.042-0.01-0.073-0.016-0.094-0.016c-0.062,0-0.125,0.005-0.188,0.016
		c-0.062,0.011-0.156-0.005-0.281-0.047c-0.146-0.104-0.281-0.219-0.406-0.344s-0.188-0.271-0.188-0.438c0-0.104,0-0.182,0-0.234
		c0-0.052-0.021-0.151-0.062-0.297c0.188-0.229,0.292-0.354,0.312-0.375c0.104-0.188,0.172-0.307,0.203-0.359
		c0.031-0.052,0.067-0.088,0.109-0.109c0.083-0.083,0.188-0.167,0.312-0.25c0.062-0.042,0.114-0.073,0.156-0.094l0.688-0.375
		c-0.167-0.125-0.271-0.271-0.312-0.438c-0.167-0.125-0.276-0.213-0.328-0.266c-0.052-0.052-0.13-0.12-0.234-0.203
		c-0.104-0.146-0.198-0.26-0.281-0.344c-0.083-0.083-0.146-0.156-0.188-0.219l-0.281-0.281c-0.333-0.208-0.511-0.396-0.531-0.562
		c-0.104-0.104-0.183-0.172-0.234-0.203c-0.052-0.031-0.099-0.067-0.141-0.109c-0.042-0.042-0.146-0.151-0.312-0.328
		c-0.167-0.177-0.302-0.338-0.406-0.484c-0.146-0.083-0.271-0.198-0.375-0.344c-0.188-0.167-0.297-0.276-0.328-0.328
		c-0.031-0.052-0.047-0.088-0.047-0.109c-0.083-0.104-0.141-0.188-0.172-0.25s-0.068-0.125-0.109-0.188
		c-0.125-0.125-0.208-0.25-0.25-0.375c-0.042-0.083-0.078-0.141-0.109-0.172s-0.089-0.088-0.172-0.172
		c-0.062,0.042-0.156,0.094-0.281,0.156s-0.229,0.104-0.312,0.125c-0.083,0.062-0.151,0.109-0.203,0.141
		c-0.052,0.031-0.099,0.068-0.141,0.109c-0.146,0.104-0.276,0.193-0.391,0.266c-0.115,0.073-0.224,0.151-0.328,0.234
		c-0.062,0.042-0.12,0.078-0.172,0.109c-0.052,0.031-0.109,0.068-0.172,0.109c-0.021,0.104-0.026,0.198-0.016,0.281
		c0.01,0.083,0.026,0.156,0.047,0.219c0.021,0.083,0.042,0.156,0.062,0.219l-0.094,0.406c0,0.042,0.005,0.083,0.016,0.125
		c0.01,0.042,0.016,0.125,0.016,0.25c-0.042,0.167-0.062,0.276-0.062,0.328c0,0.052,0,0.089,0,0.109
		c0.021,0.062,0.036,0.12,0.047,0.172c0.01,0.052,0.016,0.109,0.016,0.172c0.021,0.229,0.026,0.396,0.016,0.5
		c-0.011,0.104-0.026,0.208-0.047,0.312c0.042,0.292,0.073,0.495,0.094,0.609c0.021,0.115,0.031,0.224,0.031,0.328
		c0,0.042-0.005,0.12-0.016,0.234c-0.011,0.115-0.016,0.224-0.016,0.328c-0.021,0.146-0.031,0.292-0.031,0.438h0.188
		c0.042,0,0.094,0.005,0.156,0.016c0.062,0.011,0.114,0.016,0.156,0.016c0.188,0.042,0.307,0.062,0.359,0.062
		c0.052,0,0.088,0,0.109,0c0.146,0,0.292,0.052,0.438,0.156l0.406,0.094c0.042,0.104,0.088,0.177,0.141,0.219
		c0.052,0.042,0.099,0.083,0.141,0.125c0.062,0.042,0.125,0.062,0.188,0.062c-0.021,0.104-0.031,0.198-0.031,0.281v0.344
		c-0.021,0.104-0.047,0.193-0.078,0.266c-0.031,0.073-0.068,0.13-0.109,0.172c-0.167,0.188-0.287,0.302-0.359,0.344
		c-0.073,0.042-0.13,0.073-0.172,0.094c-0.667,0.312-1.198,0.469-1.594,0.469c-0.104-0.021-0.24-0.052-0.406-0.094
		c-0.125-0.021-0.224-0.026-0.297-0.016c-0.073,0.01-0.13,0.016-0.172,0.016l-0.344,0.125c-0.292-0.062-0.484-0.099-0.578-0.109
		c-0.094-0.011-0.183-0.005-0.266,0.016c-0.104,0.021-0.214,0.042-0.328,0.062c-0.115,0.021-0.224,0.021-0.328,0
		c-0.208-0.042-0.354-0.083-0.438-0.125c-0.042-0.021-0.083-0.037-0.125-0.047c-0.042-0.011-0.146-0.016-0.312-0.016
		c-0.042-0.146-0.089-0.234-0.141-0.266c-0.052-0.031-0.12-0.047-0.203-0.047c-0.125-0.354-0.177-0.614-0.156-0.781
		c0.021-0.167,0.083-0.406,0.188-0.719c0.146-0.104,0.25-0.182,0.312-0.234c0.062-0.052,0.125-0.109,0.188-0.172
		c0.188-0.042,0.328-0.078,0.422-0.109s0.213-0.047,0.359-0.047c0.042-0.146,0.078-0.307,0.109-0.484
		c0.031-0.177,0.005-0.328-0.078-0.453c0.042-0.146,0.067-0.255,0.078-0.328c0.01-0.073,0.026-0.141,0.047-0.203
		c-0.021-0.188-0.037-0.323-0.047-0.406c-0.011-0.083-0.016-0.156-0.016-0.219c0.021-0.167,0.031-0.266,0.031-0.297s0-0.057,0-0.078
		c-0.021-0.104-0.026-0.188-0.016-0.25c0.01-0.062,0.016-0.114,0.016-0.156c0.021-0.333,0.026-0.583,0.016-0.75
		c-0.011-0.167-0.047-0.344-0.109-0.531c0.021-0.062,0.036-0.182,0.047-0.359c0.01-0.177,0.016-0.37,0.016-0.578
		c0-0.208-0.005-0.401-0.016-0.578c-0.011-0.177-0.026-0.297-0.047-0.359c0.042-0.104,0.062-0.182,0.062-0.234
		c0-0.052,0.01-0.099,0.031-0.141c0.042-0.292,0.047-0.51,0.016-0.656c-0.031-0.146-0.047-0.302-0.047-0.469
		c0-0.188-0.005-0.37-0.016-0.547c-0.011-0.177-0.005-0.338,0.016-0.484c-0.042-0.125-0.062-0.208-0.062-0.25
		c0-0.042,0-0.083,0-0.125c0-0.146,0.021-0.281,0.062-0.406v-0.469c0.021-0.104,0.031-0.182,0.031-0.234c0-0.052,0-0.088,0-0.109
		c-0.021-0.188-0.021-0.323,0-0.406c0-0.167-0.021-0.312-0.062-0.438c-0.021-0.062-0.042-0.104-0.062-0.125l0.062-0.531v-0.219
		c0-0.062,0-0.13,0-0.203c0-0.073-0.011-0.141-0.031-0.203c-0.042-0.125-0.042-0.239,0-0.344c0-0.208-0.011-0.359-0.031-0.453
		c-0.021-0.094-0.031-0.192-0.031-0.297c0-0.062,0.005-0.12,0.016-0.172c0.01-0.052,0.026-0.109,0.047-0.172
		c0-0.083,0.016-0.333,0.047-0.75c0.031-0.417,0.057-0.792,0.078-1.125c-0.208-0.042-0.323-0.073-0.344-0.094
		c-0.021-0.021-0.062-0.031-0.125-0.031c-0.208,0.021-0.386,0.021-0.531,0c-0.167-0.021-0.271-0.031-0.312-0.031
		c-0.042,0-0.083,0-0.125,0c-0.146,0-0.25-0.042-0.312-0.125c-0.062-0.083-0.115-0.156-0.156-0.219
		c-0.146-0.188-0.229-0.375-0.25-0.562c-0.021-0.104-0.031-0.177-0.031-0.219c0-0.042-0.021-0.094-0.062-0.156
		c0.125-0.146,0.188-0.26,0.188-0.344c0-0.042-0.01-0.062-0.031-0.062c0-0.042,0.031-0.088,0.094-0.141
		c0.062-0.052,0.115-0.141,0.156-0.266c0.229-0.167,0.422-0.271,0.578-0.312c0.156-0.042,0.297-0.083,0.422-0.125
		c0.083,0,0.156-0.01,0.219-0.031c0.062-0.021,0.114-0.042,0.156-0.062c0.062-0.021,0.114-0.042,0.156-0.062
		c0.062,0.042,0.114,0.073,0.156,0.094c0.042,0.021,0.073,0.042,0.094,0.062c0.021,0.021,0.042,0.031,0.062,0.031
		c0.188-0.042,0.323-0.073,0.406-0.094c0.083-0.021,0.177-0.01,0.281,0.031c0.167-0.083,0.333-0.083,0.5,0
		c0.125-0.021,0.198-0.036,0.219-0.047c0.021-0.01,0.042-0.016,0.062-0.016h0.031c0.25,0,0.422-0.005,0.516-0.016
		c0.094-0.01,0.172-0.016,0.234-0.016h0.656c0.167,0,0.344,0.031,0.531,0.094c0.25,0.104,0.427,0.198,0.531,0.281
		C31.16,7.928,31.243,8,31.285,8.042c0.042,0.042,0.114,0.115,0.219,0.219c0.021,0.125,0.036,0.208,0.047,0.25
		c0.01,0.042,0.026,0.083,0.047,0.125c0.062,0.104,0.104,0.229,0.125,0.375c0.021,0.146-0.021,0.354-0.125,0.625
		c-0.146,0.104-0.245,0.183-0.297,0.234c-0.052,0.052-0.12,0.12-0.203,0.203c-0.062,0.021-0.125,0.042-0.188,0.062
		c-0.062,0.021-0.115,0.042-0.156,0.062c-0.062,0.021-0.115,0.042-0.156,0.062c-0.062,0.021-0.136,0.042-0.219,0.062
		c-0.062,0.021-0.125,0.037-0.188,0.047c-0.062,0.011-0.115,0.005-0.156-0.016c-0.146-0.042-0.224-0.062-0.234-0.062
		c-0.011,0-0.047,0-0.109,0c-0.062,0.229-0.099,0.401-0.109,0.516c-0.011,0.115-0.016,0.214-0.016,0.297c0,0.083,0,0.167,0,0.25
		c0,0.083-0.011,0.167-0.031,0.25c-0.021,0.208-0.031,0.333-0.031,0.375c0,0.042,0,0.083,0,0.125
		c-0.021,0.167-0.031,0.266-0.031,0.297s0,0.058,0,0.078c-0.021,0.042-0.026,0.078-0.016,0.109c0.01,0.031,0.016,0.068,0.016,0.109
		c0,0.042,0.01,0.083,0.031,0.125l0.031,0.375v0.125c0,0.146,0.021,0.25,0.062,0.312c-0.021,0.104-0.026,0.188-0.016,0.25
		c0.01,0.062,0.016,0.136,0.016,0.219c0.042,0.188,0.062,0.308,0.062,0.359c0,0.052,0,0.099,0,0.141
		c-0.021,0.292-0.026,0.5-0.016,0.625c0.01,0.125,0.016,0.24,0.016,0.344c-0.042,0.188-0.062,0.302-0.062,0.344
		c0,0.042,0,0.083,0,0.125v0.812c0.021,0.229,0.026,0.448,0.016,0.656c-0.011,0.208-0.005,0.344,0.016,0.406
		c0.125-0.104,0.208-0.167,0.25-0.188c0.042-0.021,0.083-0.042,0.125-0.062c0.083-0.042,0.167-0.078,0.25-0.109
		c0.083-0.031,0.156-0.067,0.219-0.109c0.083-0.042,0.146-0.094,0.188-0.156l1.438-0.844l1.125-0.844l1.375-1.062
		c-0.25,0-0.49-0.01-0.719-0.031c-0.188-0.021-0.365-0.031-0.531-0.031c-0.167,0-0.261-0.021-0.281-0.062
		c-0.146,0-0.261-0.01-0.344-0.031c-0.042,0-0.104-0.031-0.188-0.094c-0.083-0.062-0.167-0.125-0.25-0.188
		c-0.083-0.083-0.177-0.167-0.281-0.25v-0.781c0.062-0.104,0.125-0.198,0.188-0.281c0.042-0.083,0.083-0.156,0.125-0.219
		c0.042-0.062,0.073-0.104,0.094-0.125c0.042-0.042,0.094-0.083,0.156-0.125c0.062-0.042,0.167-0.104,0.312-0.188
		c0.146,0.021,0.239,0.026,0.281,0.016c0.042-0.01,0.083-0.016,0.125-0.016c0.062-0.021,0.114-0.036,0.156-0.047
		c0.042-0.01,0.114-0.026,0.219-0.047c0.167,0.021,0.271,0.031,0.312,0.031c0.042,0,0.073,0,0.094,0h0.438
		c0.125-0.042,0.239-0.062,0.344-0.062l0.781,0.031c0.104,0.021,0.198,0.031,0.281,0.031h0.469c0.062,0.021,0.177,0.011,0.344-0.031
		c0.062,0,0.141,0.005,0.234,0.016c0.094,0.011,0.192,0.037,0.297,0.078h0.562l0.781-0.031h0.312c0.104,0,0.203,0,0.297,0
		s0.182,0.021,0.266,0.062c0.083,0.042,0.151,0.078,0.203,0.109c0.052,0.031,0.099,0.068,0.141,0.109
		c0.062,0.021,0.167,0.104,0.312,0.25c0.188,0.333,0.317,0.599,0.391,0.797c0.073,0.198,0.036,0.401-0.109,0.609
		c-0.062,0.062-0.109,0.115-0.141,0.156c-0.031,0.042-0.068,0.083-0.109,0.125l-0.062,0.062c-0.062,0.042-0.125,0.073-0.188,0.094
		l-0.125,0.062c-0.021,0.021-0.042,0.031-0.062,0.031c-0.042,0.042-0.089,0.078-0.141,0.109c-0.052,0.031-0.13,0.078-0.234,0.141
		c-0.208,0.021-0.359,0.037-0.453,0.047c-0.094,0.011-0.224,0.016-0.391,0.016c-0.062,0.042-0.136,0.062-0.219,0.062
		c-0.083,0-0.156,0-0.219,0c-0.083,0-0.156-0.01-0.219-0.031c-0.042,0.042-0.094,0.083-0.156,0.125
		c-0.062,0.042-0.146,0.115-0.25,0.219c-0.25,0.188-0.448,0.354-0.594,0.5c-0.083,0.083-0.156,0.146-0.219,0.188
		c-0.125,0.125-0.24,0.229-0.344,0.312c-0.104,0.083-0.198,0.162-0.281,0.234c-0.083,0.073-0.146,0.12-0.188,0.141
		c-0.125,0.104-0.245,0.208-0.359,0.312c-0.115,0.104-0.214,0.177-0.297,0.219c-0.125,0.062-0.25,0.156-0.375,0.281
		s-0.24,0.24-0.344,0.344c-0.104,0.062-0.208,0.125-0.312,0.188c-0.104,0.062-0.188,0.115-0.25,0.156
		c-0.083,0.062-0.156,0.115-0.219,0.156c0.125,0.188,0.239,0.344,0.344,0.469c0.104,0.104,0.192,0.203,0.266,0.297
		c0.073,0.094,0.13,0.141,0.172,0.141c0.083,0.146,0.172,0.271,0.266,0.375c0.094,0.104,0.172,0.177,0.234,0.219
		c0.125,0.083,0.203,0.136,0.234,0.156c0.031,0.021,0.067,0.052,0.109,0.094c0.021,0.021,0.047,0.042,0.078,0.062
		c0.031,0.021,0.067,0.052,0.109,0.094c0.042,0.042,0.083,0.073,0.125,0.094c0.042,0.042,0.083,0.094,0.125,0.156
		c0.083,0.125,0.125,0.198,0.125,0.219c0.167,0.104,0.271,0.177,0.312,0.219c0.042,0.042,0.083,0.073,0.125,0.094
		c0.042,0.042,0.078,0.073,0.109,0.094c0.031,0.021,0.099,0.083,0.203,0.188c0.042,0.083,0.083,0.146,0.125,0.188
		c0.042,0.042,0.083,0.083,0.125,0.125c0.208,0.083,0.354,0.198,0.438,0.344c0.125,0.104,0.208,0.177,0.25,0.219
		c0.042,0.042,0.073,0.073,0.094,0.094c0.167,0.083,0.266,0.146,0.297,0.188c0.031,0.042,0.057,0.083,0.078,0.125
		c0.167,0.146,0.281,0.255,0.344,0.328c0.062,0.073,0.114,0.141,0.156,0.203c0.125,0.188,0.208,0.308,0.25,0.359
		c0.042,0.052,0.125,0.099,0.25,0.141c0.167-0.042,0.37-0.12,0.609-0.234c0.239-0.114,0.401-0.213,0.484-0.297
		c0.333-0.083,0.614-0.094,0.844-0.031c0.083,0.042,0.167,0.078,0.25,0.109c0.083,0.031,0.198,0.068,0.344,0.109
		c0.146,0.146,0.234,0.276,0.266,0.391c0.031,0.115,0.057,0.214,0.078,0.297c0,0.021,0.021,0.115,0.062,0.281
		C41.962,24.282,41.973,24.354,41.973,24.417z"/>
	<path d="M54.441,16.636c-0.042,0.104-0.068,0.177-0.078,0.219c-0.011,0.042-0.016,0.083-0.016,0.125
		c-0.042,0.167-0.099,0.318-0.172,0.453c-0.073,0.136-0.141,0.318-0.203,0.547c-0.062,0.062-0.109,0.115-0.141,0.156
		c-0.031,0.042-0.068,0.083-0.109,0.125l-0.094,0.094c-0.062,0.042-0.115,0.073-0.156,0.094c-0.021,0.021-0.052,0.031-0.094,0.031
		c-0.021,0-0.042,0.011-0.062,0.031c-0.167,0.042-0.312,0.083-0.438,0.125c-0.125,0.042-0.271,0.042-0.438,0
		c-0.25-0.083-0.427-0.208-0.531-0.375c-0.042,0-0.083-0.042-0.125-0.125l-0.094-0.094c-0.021-0.062-0.031-0.125-0.031-0.188
		c-0.021-0.062-0.031-0.125-0.031-0.188c-0.042-0.125-0.052-0.271-0.031-0.438c0.021-0.167,0.031-0.302,0.031-0.406
		c0-0.104,0.021-0.208,0.062-0.312l-0.281-0.219c-0.042,0-0.099,0-0.172,0c-0.073,0-0.141-0.021-0.203-0.062
		c-0.062,0-0.13,0-0.203,0c-0.073,0-0.141-0.021-0.203-0.062c-0.104,0-0.276,0.021-0.516,0.062c-0.24,0.042-0.474,0.125-0.703,0.25
		c-0.167,0.062-0.271,0.094-0.312,0.094c-0.042,0-0.073-0.01-0.094-0.031c-0.229,0.125-0.401,0.229-0.516,0.312
		c-0.115,0.083-0.245,0.198-0.391,0.344c-0.104,0.104-0.177,0.167-0.219,0.188c-0.042,0.021-0.073,0.042-0.094,0.062
		c-0.062,0.021-0.115,0.052-0.156,0.094l-0.094,0.094c-0.021,0.021-0.042,0.031-0.062,0.031l-0.344,0.406
		c-0.042,0.083-0.094,0.156-0.156,0.219c-0.104,0.125-0.188,0.208-0.25,0.25c-0.083,0.146-0.136,0.234-0.156,0.266
		c-0.021,0.031-0.042,0.058-0.062,0.078c-0.125,0.292-0.208,0.49-0.25,0.594c-0.042,0.104-0.073,0.177-0.094,0.219
		c0,0.292-0.005,0.505-0.016,0.641c-0.011,0.136-0.016,0.266-0.016,0.391c0.042,0.417,0.042,0.854,0,1.312
		c0.083,0.188,0.094,0.365,0.031,0.531c0.062,0.312,0.073,0.49,0.031,0.531c0.042,0.104,0.083,0.156,0.125,0.156
		c0.042,0,0.114-0.021,0.219-0.062c0.125,0.083,0.25,0.13,0.375,0.141c0.125,0.011,0.25,0.016,0.375,0.016s0.239,0.016,0.344,0.047
		c0.104,0.031,0.208,0.089,0.312,0.172c0.042,0.021,0.083,0.062,0.125,0.125c0.042,0.062,0.083,0.136,0.125,0.219
		c0.062,0.083,0.114,0.177,0.156,0.281c-0.021,0.062-0.031,0.125-0.031,0.188v0.188c-0.042,0.229-0.099,0.406-0.172,0.531
		c-0.073,0.125-0.141,0.219-0.203,0.281c-0.104,0.229-0.261,0.365-0.469,0.406c-0.229,0.042-0.391,0.078-0.484,0.109
		s-0.172,0.058-0.234,0.078c-0.104,0.021-0.198,0.026-0.281,0.016c-0.083-0.01-0.177-0.026-0.281-0.047
		c-0.146-0.042-0.229-0.067-0.25-0.078c-0.021-0.01-0.052-0.026-0.094-0.047c-0.083,0-0.151-0.005-0.203-0.016
		c-0.052-0.01-0.099-0.005-0.141,0.016c-0.083,0-0.162,0.005-0.234,0.016c-0.073,0.011-0.162,0.016-0.266,0.016h-0.656
		c-0.104,0-0.203,0-0.297,0s-0.193,0.021-0.297,0.062l-0.406,0.094c-0.146,0-0.297-0.01-0.453-0.031
		c-0.156-0.021-0.308-0.062-0.453-0.125c-0.292-0.062-0.479-0.229-0.562-0.5c-0.021-0.146-0.037-0.266-0.047-0.359
		c-0.011-0.094-0.016-0.161-0.016-0.203v-0.125c0.021-0.062,0.042-0.135,0.062-0.219c0.042-0.146,0.083-0.239,0.125-0.281
		l0.25-0.188l0.312-0.156c0.104-0.042,0.182-0.073,0.234-0.094c0.052-0.021,0.099-0.042,0.141-0.062l0.062-0.031
		c0.104-0.042,0.188-0.067,0.25-0.078c0.062-0.01,0.114-0.026,0.156-0.047c0.021-0.167,0.031-0.344,0.031-0.531
		s0.01-0.333,0.031-0.438c-0.042-0.188-0.052-0.333-0.031-0.438c-0.042-0.208-0.058-0.349-0.047-0.422
		c0.01-0.073,0.016-0.13,0.016-0.172c0.062-0.188,0.073-0.375,0.031-0.562v-0.562l0.031-0.5c0.021-0.188,0.031-0.328,0.031-0.422
		s0.01-0.161,0.031-0.203c0.042-0.062,0.062-0.125,0.062-0.188s0.01-0.125,0.031-0.188c0.021-0.208,0.031-0.333,0.031-0.375
		c0-0.042,0-0.083,0-0.125c0-0.042-0.005-0.088-0.016-0.141c-0.011-0.052-0.016-0.12-0.016-0.203l0.125-0.594
		c-0.104-0.292-0.141-0.516-0.109-0.672s0.047-0.286,0.047-0.391c-0.271-0.125-0.537-0.26-0.797-0.406
		c-0.261-0.146-0.474-0.333-0.641-0.562l-0.156-0.344l0.062-0.688l0.375-0.594c0.062-0.021,0.135-0.052,0.219-0.094
		c0.062-0.042,0.135-0.073,0.219-0.094c0.083-0.021,0.156-0.052,0.219-0.094c0.021,0,0.078,0.005,0.172,0.016
		c0.094,0.011,0.192,0.021,0.297,0.031c0.104,0.011,0.203,0.021,0.297,0.031c0.094,0.011,0.161,0.016,0.203,0.016
		c0.104-0.021,0.192-0.026,0.266-0.016c0.073,0.011,0.141,0.016,0.203,0.016h0.375c0.354,0,0.646,0.104,0.875,0.312
		c0.229,0.208,0.375,0.386,0.438,0.531c0.042,0.167,0.062,0.281,0.062,0.344c-0.021,0.167-0.031,0.271-0.031,0.312
		c0,0.042,0.01,0.083,0.031,0.125c0.188-0.062,0.307-0.109,0.359-0.141c0.052-0.031,0.099-0.067,0.141-0.109
		c0.125-0.083,0.203-0.141,0.234-0.172s0.067-0.067,0.109-0.109c0.104-0.042,0.208-0.083,0.312-0.125
		c0.104-0.042,0.208-0.083,0.312-0.125c0.188-0.083,0.344-0.198,0.469-0.344c0.167,0,0.271-0.01,0.312-0.031
		c0.042-0.021,0.104-0.073,0.188-0.156c0.312,0,0.531-0.031,0.656-0.094c0.104-0.042,0.192-0.062,0.266-0.062
		c0.073,0,0.141,0,0.203,0c0.292,0,0.542-0.01,0.75-0.031c0.208-0.021,0.396-0.031,0.562-0.031c0.125,0,0.338,0.016,0.641,0.047
		c0.302,0.031,0.536,0.078,0.703,0.141c0.125,0.062,0.229,0.094,0.312,0.094h0.125c0.062,0.021,0.135,0.042,0.219,0.062
		c0.167,0.083,0.271,0.156,0.312,0.219c0.229,0.229,0.385,0.438,0.469,0.625c0.083,0.188,0.146,0.375,0.188,0.562
		c0.042,0.167,0.078,0.344,0.109,0.531S54.399,16.386,54.441,16.636z"/>
	<path d="M70.098,24.011c0,0.146-0.011,0.271-0.031,0.375c-0.021,0.104-0.042,0.203-0.062,0.297
		c-0.021,0.094-0.052,0.162-0.094,0.203c-0.042,0.083-0.083,0.146-0.125,0.188c-0.042,0.042-0.083,0.073-0.125,0.094
		c-0.042,0.042-0.083,0.073-0.125,0.094c-0.021,0.021-0.052,0.031-0.094,0.031c-0.021,0-0.042,0.011-0.062,0.031
		c-0.229,0.104-0.422,0.183-0.578,0.234c-0.156,0.052-0.349,0.068-0.578,0.047c-0.167-0.042-0.297-0.067-0.391-0.078
		c-0.094-0.01-0.183-0.016-0.266-0.016c-0.104,0-0.203,0.005-0.297,0.016c-0.094,0.011-0.193,0.016-0.297,0.016
		c-0.167-0.021-0.271-0.026-0.312-0.016c-0.042,0.011-0.073,0.016-0.094,0.016c-0.229-0.042-0.386-0.073-0.469-0.094
		c-0.083-0.021-0.156-0.052-0.219-0.094c-0.021,0-0.047-0.01-0.078-0.031c-0.031-0.021-0.068-0.042-0.109-0.062
		c-0.062-0.021-0.115-0.052-0.156-0.094c-0.042-0.062-0.073-0.135-0.094-0.219c-0.021-0.062-0.042-0.12-0.062-0.172
		c-0.021-0.052-0.021-0.088,0-0.109c-0.062-0.062-0.078-0.114-0.047-0.156c0.031-0.042,0.026-0.125-0.016-0.25
		c0.042-0.062,0.047-0.156,0.016-0.281s-0.058-0.292-0.078-0.5c-0.25,0.229-0.458,0.396-0.625,0.5
		c-0.167,0.104-0.312,0.198-0.438,0.281c-0.25,0.125-0.438,0.292-0.562,0.5c-0.229,0.021-0.386,0.052-0.469,0.094
		c-0.083,0.042-0.167,0.104-0.25,0.188c-0.167,0.042-0.297,0.073-0.391,0.094c-0.094,0.021-0.162,0.042-0.203,0.062
		c-0.25,0.083-0.406,0.136-0.469,0.156c-0.062,0.021-0.115,0.031-0.156,0.031c-0.125,0.062-0.208,0.099-0.25,0.109
		c-0.042,0.011-0.083,0.026-0.125,0.047c-0.083,0.083-0.198,0.146-0.344,0.188c-0.167,0.042-0.354,0.062-0.562,0.062h-0.375
		l-0.438-0.125c-0.104-0.042-0.208-0.073-0.312-0.094c-0.104-0.021-0.167-0.031-0.188-0.031c-0.104-0.042-0.172-0.062-0.203-0.062
		s-0.078,0-0.141,0c-0.167-0.083-0.281-0.13-0.344-0.141c-0.062-0.01-0.167-0.016-0.312-0.016c-0.083-0.104-0.156-0.167-0.219-0.188
		c-0.062-0.021-0.208-0.052-0.438-0.094c-0.104-0.167-0.167-0.266-0.188-0.297c-0.021-0.031-0.042-0.057-0.062-0.078
		c-0.312-0.25-0.531-0.458-0.656-0.625c-0.125-0.167-0.219-0.333-0.281-0.5c-0.042-0.125-0.083-0.271-0.125-0.438
		c-0.021-0.083-0.073-0.188-0.156-0.312c-0.042-0.208-0.062-0.37-0.062-0.484c0-0.114,0.01-0.213,0.031-0.297
		c0-0.104,0.021-0.245,0.062-0.422c0.042-0.177,0.094-0.307,0.156-0.391c0.062-0.083,0.114-0.234,0.156-0.453
		c0.042-0.219,0.094-0.38,0.156-0.484c0.042-0.104,0.114-0.234,0.219-0.391c0.104-0.156,0.177-0.276,0.219-0.359l0.156-0.344
		c0.104-0.104,0.172-0.182,0.203-0.234c0.031-0.052,0.067-0.13,0.109-0.234c0.208-0.229,0.354-0.38,0.438-0.453
		c0.083-0.073,0.146-0.13,0.188-0.172c0.125-0.125,0.219-0.208,0.281-0.25c0.062-0.062,0.135-0.125,0.219-0.188
		c0.083-0.062,0.177-0.125,0.281-0.188c0.167-0.104,0.281-0.177,0.344-0.219c0.062-0.042,0.135-0.083,0.219-0.125
		c0.229-0.167,0.391-0.276,0.484-0.328c0.094-0.052,0.213-0.13,0.359-0.234c0.104-0.042,0.177-0.062,0.219-0.062
		c0.042,0,0.083-0.01,0.125-0.031c0.25-0.062,0.438-0.125,0.562-0.188s0.25-0.146,0.375-0.25c0.396-0.062,0.729-0.135,1-0.219
		c0.229-0.042,0.38-0.062,0.453-0.062c0.073,0,0.13-0.01,0.172-0.031c0.062-0.021,0.13-0.036,0.203-0.047
		c0.073-0.01,0.192-0.026,0.359-0.047c0.104,0.042,0.208,0.073,0.312,0.094c0.104,0.021,0.198,0.042,0.281,0.062
		c0.083,0.021,0.177,0.031,0.281,0.031l-0.125-1.062c-0.042-0.167-0.083-0.292-0.125-0.375c-0.042-0.062-0.083-0.13-0.125-0.203
		c-0.042-0.073-0.083-0.13-0.125-0.172c-0.083-0.125-0.208-0.224-0.375-0.297c-0.167-0.073-0.292-0.12-0.375-0.141
		c-0.104-0.021-0.302-0.021-0.594,0c-0.146-0.042-0.25-0.057-0.312-0.047c-0.062,0.011-0.115,0.016-0.156,0.016
		c-0.167,0.021-0.276,0.031-0.328,0.031c-0.052,0-0.099,0-0.141,0c-0.146-0.021-0.24-0.031-0.281-0.031c-0.042,0-0.083,0-0.125,0
		c-0.708,0.167-1.073,0.261-1.094,0.281c-0.083,0.083-0.172,0.141-0.266,0.172s-0.162,0.058-0.203,0.078
		c-0.062,0.042-0.12,0.078-0.172,0.109c-0.052,0.031-0.099,0.068-0.141,0.109c-0.062,0.042-0.104,0.073-0.125,0.094l-0.469,0.406
		c-0.042,0.042-0.073,0.068-0.094,0.078c-0.021,0.011-0.042,0.016-0.062,0.016l-0.094,0.062c-0.104,0.104-0.208,0.219-0.312,0.344
		c-0.021,0.021-0.052,0.047-0.094,0.078c-0.042,0.031-0.083,0.068-0.125,0.109l-0.188,0.156l-0.25,0.281l-0.312,0.188
		c-0.062,0-0.136,0-0.219,0h-0.406c-0.167-0.083-0.339-0.198-0.516-0.344c-0.177-0.146-0.276-0.354-0.297-0.625
		c0-0.229,0.052-0.474,0.156-0.734c0.104-0.26,0.229-0.463,0.375-0.609c0.104-0.188,0.25-0.385,0.438-0.594
		c0.188-0.208,0.375-0.354,0.562-0.438c0.062-0.021,0.135-0.073,0.219-0.156c0.104-0.104,0.177-0.172,0.219-0.203
		c0.042-0.031,0.083-0.088,0.125-0.172c0.125-0.062,0.208-0.109,0.25-0.141c0.042-0.031,0.094-0.088,0.156-0.172
		c0.312-0.104,0.505-0.172,0.578-0.203c0.073-0.031,0.13-0.047,0.172-0.047c0.167-0.083,0.281-0.135,0.344-0.156
		c0.062-0.021,0.125-0.042,0.188-0.062c0.146-0.083,0.292-0.146,0.438-0.188c0.104-0.021,0.172-0.042,0.203-0.062
		c0.031-0.021,0.078-0.052,0.141-0.094c0.062,0.021,0.135,0.031,0.219,0.031c0.083,0,0.167,0,0.25,0
		c0.271-0.062,0.442-0.104,0.516-0.125c0.073-0.021,0.13-0.042,0.172-0.062c0.042,0,0.099-0.01,0.172-0.031
		c0.073-0.021,0.161-0.021,0.266,0c0.146,0.042,0.245,0.068,0.297,0.078c0.052,0.011,0.099,0.016,0.141,0.016
		c0.042-0.021,0.083-0.036,0.125-0.047c0.042-0.01,0.114-0.036,0.219-0.078c0.125,0.042,0.208,0.062,0.25,0.062
		c0.042,0,0.083,0,0.125,0c0.208,0.042,0.323,0.062,0.344,0.062c0.021,0,0.047,0,0.078,0s0.13-0.01,0.297-0.031
		c0.188,0.042,0.307,0.073,0.359,0.094c0.052,0.021,0.088,0.042,0.109,0.062c0.25,0.104,0.406,0.167,0.469,0.188
		c0.062,0.021,0.114,0.042,0.156,0.062c0.083,0.021,0.229,0.083,0.438,0.188c0.104,0.083,0.177,0.13,0.219,0.141
		c0.042,0.011,0.104,0.037,0.188,0.078c0.104,0.188,0.188,0.281,0.25,0.281s0.104,0,0.125,0c0.083,0.042,0.135,0.104,0.156,0.188
		c0.021,0.083,0.094,0.156,0.219,0.219c0.042,0.188,0.073,0.308,0.094,0.359c0.021,0.052,0.042,0.099,0.062,0.141
		c0.042,0.062,0.073,0.12,0.094,0.172c0.021,0.052,0.052,0.109,0.094,0.172c0.062,0.104,0.109,0.188,0.141,0.25
		s0.078,0.125,0.141,0.188c0.062,0.146,0.109,0.281,0.141,0.406s0.067,0.24,0.109,0.344c0.042,0.167,0.067,0.287,0.078,0.359
		c0.01,0.073,0.047,0.183,0.109,0.328c0,0.208,0.021,0.354,0.062,0.438c0,0.042,0.01,0.099,0.031,0.172
		c0.021,0.073,0.031,0.13,0.031,0.172c0,0.042,0.01,0.146,0.031,0.312c0.021,0.167,0.042,0.292,0.062,0.375
		c0.021,0.042,0.031,0.099,0.031,0.172c0,0.073,0.01,0.151,0.031,0.234c0,0.083,0.01,0.177,0.031,0.281
		c0,0.146,0.01,0.271,0.031,0.375c0,0.104,0.005,0.198,0.016,0.281c0.01,0.083,0.016,0.146,0.016,0.188
		c0.021,0.167,0.021,0.276,0,0.328c-0.021,0.052-0.031,0.099-0.031,0.141c0.021,0.188,0.031,0.323,0.031,0.406
		c0,0.083,0,0.156,0,0.219c0,0.354,0.005,0.656,0.016,0.906c0.01,0.25,0.026,0.511,0.047,0.781c0,0.146-0.011,0.287-0.031,0.422
		c-0.021,0.136-0.031,0.266-0.031,0.391c0,0.188-0.005,0.37-0.016,0.547c-0.011,0.177-0.005,0.359,0.016,0.547
		c0.167,0.021,0.281,0.031,0.344,0.031s0.114,0,0.156,0c0.167-0.021,0.302,0,0.406,0.062c0.125,0.021,0.219,0.031,0.281,0.031
		s0.146,0.011,0.25,0.031c0.146,0.104,0.234,0.172,0.266,0.203s0.067,0.068,0.109,0.109L70.098,24.011z M65.223,19.604
		c0-0.042-0.005-0.104-0.016-0.188c-0.011-0.083-0.016-0.177-0.016-0.281v-0.375c-0.042-0.125-0.083-0.239-0.125-0.344
		c-0.083-0.208-0.136-0.333-0.156-0.375c-0.062-0.021-0.167-0.036-0.312-0.047c-0.146-0.01-0.292-0.01-0.438,0
		c-0.146,0.011-0.287,0.021-0.422,0.031c-0.136,0.011-0.224,0.016-0.266,0.016c-0.229,0.021-0.406,0.031-0.531,0.031
		s-0.229,0.021-0.312,0.062l-0.625,0.25c-0.167,0.062-0.292,0.094-0.375,0.094c-0.146,0.062-0.24,0.109-0.281,0.141
		c-0.042,0.031-0.083,0.058-0.125,0.078c-0.188,0.125-0.427,0.261-0.719,0.406c-0.167,0.125-0.292,0.224-0.375,0.297
		c-0.083,0.073-0.177,0.13-0.281,0.172c-0.167,0.104-0.276,0.183-0.328,0.234c-0.052,0.052-0.099,0.099-0.141,0.141
		c-0.042,0.062-0.089,0.125-0.141,0.188c-0.052,0.062-0.109,0.125-0.172,0.188c-0.104,0.25-0.208,0.464-0.312,0.641
		c-0.104,0.177-0.208,0.516-0.312,1.016c0.021,0.083,0.057,0.193,0.109,0.328c0.052,0.136,0.099,0.255,0.141,0.359
		c0.104,0.083,0.188,0.146,0.25,0.188c0.062,0.042,0.114,0.083,0.156,0.125c0.104,0.042,0.182,0.073,0.234,0.094
		c0.052,0.021,0.099,0.042,0.141,0.062c0.167,0.042,0.281,0.094,0.344,0.156h0.062c0.021,0,0.036,0.005,0.047,0.016
		c0.01,0.011,0.026,0.016,0.047,0.016c0.042,0.021,0.094,0.042,0.156,0.062c0.042,0,0.094-0.01,0.156-0.031
		c0.083-0.042,0.146-0.062,0.188-0.062c0.167-0.042,0.281-0.062,0.344-0.062s0.114,0,0.156,0c0.167-0.062,0.276-0.104,0.328-0.125
		c0.052-0.021,0.099-0.042,0.141-0.062c0.229-0.062,0.38-0.104,0.453-0.125c0.073-0.021,0.13-0.052,0.172-0.094
		c0.083-0.042,0.161-0.083,0.234-0.125c0.073-0.042,0.151-0.083,0.234-0.125c0.083-0.062,0.167-0.12,0.25-0.172
		c0.083-0.052,0.177-0.109,0.281-0.172c0.042-0.021,0.083-0.047,0.125-0.078c0.042-0.031,0.083-0.057,0.125-0.078
		c0.062-0.021,0.114-0.042,0.156-0.062l0.125-0.125c0.062-0.062,0.135-0.114,0.219-0.156c0.062-0.062,0.156-0.135,0.281-0.219
		c0.125-0.104,0.208-0.182,0.25-0.234c0.042-0.052,0.083-0.099,0.125-0.141c0.167-0.104,0.276-0.177,0.328-0.219
		c0.052-0.042,0.099-0.073,0.141-0.094l0.219-0.281c-0.042-0.229-0.047-0.417-0.016-0.562
		C65.176,19.834,65.202,19.709,65.223,19.604z"/>
	<path d="M84.973,25.229c0.042,0.271,0.052,0.469,0.031,0.594c-0.021,0.125-0.052,0.229-0.094,0.312
		c-0.021,0.125-0.073,0.24-0.156,0.344l-0.125,0.188l-0.312,0.25c-0.062,0.042-0.125,0.073-0.188,0.094
		c-0.062,0.021-0.156,0.052-0.281,0.094c-0.125-0.042-0.219-0.057-0.281-0.047c-0.062,0.011-0.125,0.005-0.188-0.016
		c-0.125-0.021-0.24-0.083-0.344-0.188c-0.167-0.125-0.261-0.203-0.281-0.234c-0.021-0.031-0.042-0.047-0.062-0.047
		c-0.062-0.062-0.115-0.141-0.156-0.234c-0.042-0.094-0.104-0.192-0.188-0.297c0-0.125-0.021-0.271-0.062-0.438l-0.062-0.25
		c-0.104-0.021-0.208-0.021-0.312,0c-0.229,0.042-0.448,0.104-0.656,0.188c-0.083,0-0.224,0.005-0.422,0.016
		c-0.198,0.011-0.328-0.005-0.391-0.047c-0.167,0.042-0.302,0.078-0.406,0.109c-0.104,0.031-0.208,0.047-0.312,0.047
		c-0.062,0-0.12-0.005-0.172-0.016c-0.052-0.01-0.109-0.016-0.172-0.016c-0.188,0.062-0.339,0.104-0.453,0.125
		c-0.115,0.021-0.224,0.031-0.328,0.031c-0.229,0.042-0.391,0.068-0.484,0.078c-0.094,0.011-0.172,0.016-0.234,0.016
		c-0.104,0.021-0.229,0.031-0.375,0.031c-0.25,0.083-0.438,0.136-0.562,0.156c-0.125,0.021-0.229,0.031-0.312,0.031
		c-0.188,0.021-0.333,0.042-0.438,0.062c-0.104,0.021-0.208,0.011-0.312-0.031c-0.042,0-0.167,0.021-0.375,0.062
		c-0.104,0.042-0.188,0.062-0.25,0.062s-0.115,0.011-0.156,0.031c-0.062,0-0.13,0-0.203,0c-0.073,0-0.151,0.011-0.234,0.031
		c-0.229,0.083-0.406,0.136-0.531,0.156c-0.125,0.021-0.219,0.042-0.281,0.062c-0.062,0-0.136,0.021-0.219,0.062
		c-0.042,0.021-0.073,0.031-0.094,0.031l-0.406-0.031c-0.125-0.021-0.245-0.042-0.359-0.062c-0.115-0.021-0.214-0.062-0.297-0.125
		c-0.104-0.042-0.219-0.146-0.344-0.312c-0.021,0-0.073-0.062-0.156-0.188c-0.042-0.062-0.073-0.114-0.094-0.156
		c-0.021-0.083-0.031-0.167-0.031-0.25c-0.042-0.167-0.042-0.292,0-0.375c0-0.104,0.042-0.239,0.125-0.406l0.094-0.188l0.406-0.375
		c0.125-0.167,0.26-0.271,0.406-0.312c0.083-0.083,0.151-0.135,0.203-0.156c0.052-0.021,0.099-0.042,0.141-0.062
		c0.042-0.062,0.078-0.12,0.109-0.172c0.031-0.052,0.067-0.099,0.109-0.141c0.125-0.167,0.271-0.292,0.438-0.375
		c0.146-0.208,0.292-0.375,0.438-0.5c0.146-0.188,0.26-0.312,0.344-0.375c0.146-0.104,0.25-0.188,0.312-0.25
		s0.135-0.114,0.219-0.156c0.229-0.271,0.344-0.417,0.344-0.438c0.125-0.125,0.208-0.219,0.25-0.281
		c0.104-0.104,0.161-0.172,0.172-0.203c0.01-0.031,0.016-0.078,0.016-0.141c0.125-0.104,0.203-0.172,0.234-0.203
		s0.057-0.057,0.078-0.078c0.062-0.083,0.114-0.146,0.156-0.188c0.042-0.042,0.083-0.083,0.125-0.125
		c0.062-0.104,0.109-0.177,0.141-0.219c0.031-0.042,0.067-0.114,0.109-0.219c0.104-0.083,0.177-0.135,0.219-0.156
		c0.042-0.021,0.083-0.052,0.125-0.094c0.104-0.167,0.188-0.286,0.25-0.359c0.062-0.073,0.114-0.13,0.156-0.172
		c0.146-0.125,0.234-0.213,0.266-0.266c0.031-0.052,0.067-0.13,0.109-0.234c0.146-0.125,0.234-0.203,0.266-0.234
		s0.067-0.057,0.109-0.078c0.104-0.125,0.182-0.219,0.234-0.281c0.052-0.062,0.109-0.125,0.172-0.188
		c0.104-0.167,0.177-0.266,0.219-0.297c0.042-0.031,0.083-0.047,0.125-0.047c0.188-0.271,0.364-0.51,0.531-0.719
		c0.083-0.104,0.177-0.208,0.281-0.312h-0.438h-0.5c-0.104,0-0.229,0.005-0.375,0.016c-0.146,0.011-0.271,0.005-0.375-0.016
		c-0.146,0.021-0.24,0.031-0.281,0.031c-0.042,0-0.083,0-0.125,0c-0.042,0-0.104-0.005-0.188-0.016
		c-0.083-0.01-0.167-0.016-0.25-0.016c-0.042,0.042-0.083,0.073-0.125,0.094c-0.042,0.021-0.083,0.031-0.125,0.031
		c-0.042,0.021-0.083,0.031-0.125,0.031h-0.156c-0.188,0.021-0.344,0.037-0.469,0.047c-0.125,0.011-0.25-0.005-0.375-0.047
		c-0.146,0.042-0.323,0.068-0.531,0.078c-0.208,0.011-0.396-0.005-0.562-0.047c-0.104,0.021-0.188,0.031-0.25,0.031
		s-0.115,0-0.156,0h-0.125c-0.083-0.021-0.156-0.031-0.219-0.031c-0.146,0-0.24,0.011-0.281,0.031
		c0.021,0.062,0.042,0.141,0.062,0.234c0.021,0.094,0.031,0.172,0.031,0.234c0.042,0.125,0.062,0.266,0.062,0.422
		s-0.031,0.328-0.094,0.516c-0.125,0.146-0.198,0.271-0.219,0.375c-0.167,0.125-0.38,0.245-0.641,0.359
		c-0.261,0.115-0.516,0.12-0.766,0.016c-0.208-0.083-0.354-0.219-0.438-0.406c-0.167-0.208-0.276-0.349-0.328-0.422
		c-0.052-0.073-0.099-0.13-0.141-0.172c-0.062-0.292-0.12-0.51-0.172-0.656c-0.052-0.146-0.089-0.292-0.109-0.438
		c-0.021-0.125-0.031-0.255-0.031-0.391c0-0.135,0-0.266,0-0.391s0-0.229,0-0.312c0-0.083-0.021-0.177-0.062-0.281l-0.125-0.5
		c0-0.083-0.011-0.141-0.031-0.172c-0.021-0.031-0.052-0.109-0.094-0.234c0-0.229-0.011-0.391-0.031-0.484
		c-0.021-0.094-0.042-0.182-0.062-0.266c-0.042-0.104-0.062-0.213-0.062-0.328c0-0.114,0.021-0.224,0.062-0.328
		c0.042-0.167,0.12-0.307,0.234-0.422c0.114-0.114,0.203-0.192,0.266-0.234c0.062-0.042,0.13-0.073,0.203-0.094
		c0.073-0.021,0.172-0.073,0.297-0.156c0.083,0.021,0.208,0.031,0.375,0.031c0.062,0,0.125-0.01,0.188-0.031
		c0.062,0.042,0.125,0.073,0.188,0.094c0.042,0.042,0.088,0.068,0.141,0.078c0.052,0.011,0.099,0.026,0.141,0.047l0.344,0.375
		l0.219,0.625c0.021,0.062,0.031,0.115,0.031,0.156c0,0.104,0.01,0.167,0.031,0.188c0,0.146,0.021,0.261,0.062,0.344
		c0.125-0.021,0.25-0.026,0.375-0.016c0.125,0.011,0.26,0.016,0.406,0.016c0.333,0.042,0.614,0.042,0.844,0
		c0.229-0.042,0.479-0.083,0.75-0.125c0.271-0.042,0.521-0.052,0.75-0.031c0.188,0,0.312-0.005,0.375-0.016
		c0.062-0.01,0.125-0.016,0.188-0.016c0.229,0,0.38-0.005,0.453-0.016c0.073-0.01,0.13-0.026,0.172-0.047
		c0.083-0.021,0.198-0.031,0.344-0.031c0.167,0.021,0.271,0.037,0.312,0.047c0.042,0.011,0.073,0.016,0.094,0.016
		c0.104-0.042,0.192-0.062,0.266-0.062c0.073,0,0.151,0,0.234,0c0.104,0.021,0.177,0.026,0.219,0.016
		c0.042-0.01,0.114-0.036,0.219-0.078c0.104-0.042,0.188-0.057,0.25-0.047c0.062,0.011,0.114-0.005,0.156-0.047
		c0.062,0.021,0.156,0.031,0.281,0.031c0.062,0,0.114,0.011,0.156,0.031l0.625-0.094h0.406c0.188-0.021,0.317-0.026,0.391-0.016
		c0.073,0.011,0.13,0.016,0.172,0.016c0.125,0.021,0.224,0.026,0.297,0.016c0.073-0.01,0.192-0.057,0.359-0.141
		c0.167,0.062,0.281,0.109,0.344,0.141s0.114,0.058,0.156,0.078c0.229,0.104,0.38,0.183,0.453,0.234
		c0.073,0.052,0.13,0.099,0.172,0.141c0.083,0.125,0.146,0.208,0.188,0.25c0.042,0.042,0.073,0.083,0.094,0.125
		c0.021,0.042,0.042,0.094,0.062,0.156c0.021,0.062,0.031,0.136,0.031,0.219c0,0.229-0.011,0.401-0.031,0.516
		c-0.021,0.115-0.052,0.203-0.094,0.266c-0.042,0.062-0.073,0.125-0.094,0.188c-0.021,0.062-0.052,0.146-0.094,0.25l-0.281,0.281
		c-0.042,0.042-0.073,0.083-0.094,0.125c-0.021,0.042-0.042,0.083-0.062,0.125c-0.021,0.062-0.042,0.104-0.062,0.125l-0.281,0.312
		c-0.062,0.062-0.136,0.125-0.219,0.188c-0.167,0.125-0.261,0.198-0.281,0.219c-0.208,0.312-0.349,0.505-0.422,0.578
		c-0.073,0.073-0.13,0.12-0.172,0.141c-0.083,0.083-0.156,0.188-0.219,0.312l-0.188,0.375l-0.312,0.469
		c-0.208,0.229-0.354,0.391-0.438,0.484c-0.083,0.094-0.156,0.162-0.219,0.203c-0.104,0.229-0.229,0.386-0.375,0.469
		c-0.104,0.188-0.177,0.302-0.219,0.344c-0.042,0.042-0.083,0.073-0.125,0.094c-0.188,0.146-0.354,0.292-0.5,0.438
		c-0.146,0.146-0.25,0.302-0.312,0.469c-0.125,0.104-0.208,0.172-0.25,0.203c-0.042,0.031-0.083,0.068-0.125,0.109
		c-0.042,0.104-0.083,0.177-0.125,0.219c-0.042,0.042-0.083,0.083-0.125,0.125c-0.146,0.188-0.234,0.302-0.266,0.344
		c-0.031,0.042-0.068,0.083-0.109,0.125c-0.042,0.042-0.083,0.099-0.125,0.172c-0.042,0.073-0.104,0.141-0.188,0.203
		c-0.062,0.104-0.115,0.193-0.156,0.266c-0.042,0.073-0.083,0.141-0.125,0.203c0.104,0.042,0.188,0.058,0.25,0.047
		c0.062-0.01,0.135-0.005,0.219,0.016c0.062-0.021,0.13-0.042,0.203-0.062c0.073-0.021,0.141-0.042,0.203-0.062
		c0.083-0.021,0.146-0.031,0.188-0.031h0.188c0.042,0,0.088-0.005,0.141-0.016c0.052-0.01,0.099-0.016,0.141-0.016
		c0.104-0.021,0.198-0.036,0.281-0.047c0.083-0.01,0.167-0.016,0.25-0.016c0.125-0.042,0.234-0.062,0.328-0.062
		s0.182-0.01,0.266-0.031c0.021,0,0.067-0.01,0.141-0.031c0.073-0.021,0.161-0.042,0.266-0.062c0.104-0.021,0.219-0.042,0.344-0.062
		c0.042,0,0.104-0.01,0.188-0.031c0.062-0.021,0.13-0.031,0.203-0.031c0.073,0,0.161-0.021,0.266-0.062
		c0.104-0.042,0.198-0.067,0.281-0.078c0.083-0.01,0.167-0.026,0.25-0.047c0.083-0.021,0.208-0.021,0.375,0
		c0.021-0.167,0.026-0.281,0.016-0.344c-0.011-0.062-0.016-0.114-0.016-0.156c-0.062-0.167-0.078-0.307-0.047-0.422
		c0.031-0.114,0.057-0.224,0.078-0.328c0.042-0.146,0.088-0.239,0.141-0.281c0.052-0.042,0.088-0.114,0.109-0.219
		c0.146-0.104,0.245-0.167,0.297-0.188c0.052-0.021,0.099-0.042,0.141-0.062c0.25-0.083,0.422-0.13,0.516-0.141
		c0.094-0.01,0.213,0.026,0.359,0.109c0.146,0.062,0.302,0.167,0.469,0.312c0.083,0.083,0.177,0.156,0.281,0.219l0.156,0.594
		c0,0.104,0.01,0.198,0.031,0.281c0,0.042,0.005,0.078,0.016,0.109c0.01,0.031,0.016,0.068,0.016,0.109v0.094
		c0.042,0.271,0.062,0.469,0.062,0.594s0,0.24,0,0.344c0.042,0.292,0.062,0.469,0.062,0.531s0,0.104,0,0.125
		c0.021,0.188,0.021,0.318,0,0.391c-0.021,0.073-0.042,0.141-0.062,0.203c0.062,0.208,0.094,0.349,0.094,0.422
		C84.973,25.1,84.973,25.167,84.973,25.229z"/>
	<path d="M102.879,14.948c0,0.146-0.042,0.261-0.125,0.344c-0.042,0.042-0.073,0.083-0.094,0.125
		c-0.021,0.042-0.052,0.083-0.094,0.125c-0.042,0.062-0.073,0.115-0.094,0.156c-0.083,0.021-0.167,0.052-0.25,0.094
		c-0.167,0.083-0.292,0.125-0.375,0.125c-0.167-0.042-0.276-0.062-0.328-0.062c-0.052,0-0.099,0-0.141,0
		c-0.167,0.083-0.281,0.125-0.344,0.125s-0.115-0.01-0.156-0.031c0,0.354-0.011,0.562-0.031,0.625
		c-0.042,0.25-0.068,0.401-0.078,0.453c-0.011,0.052-0.016,0.099-0.016,0.141c0,0.104,0,0.193,0,0.266
		c0,0.073-0.021,0.162-0.062,0.266c0.021,0.125,0.031,0.229,0.031,0.312c0,0.083,0,0.156,0,0.219s0,0.13,0,0.203
		c0,0.073-0.011,0.141-0.031,0.203c0.021,0.062,0.036,0.13,0.047,0.203c0.01,0.073,0.005,0.141-0.016,0.203
		c0.042,0.125,0.062,0.24,0.062,0.344c-0.021,0.188-0.037,0.312-0.047,0.375c-0.011,0.062-0.026,0.115-0.047,0.156
		c-0.021,0.146-0.037,0.24-0.047,0.281c-0.011,0.042-0.026,0.083-0.047,0.125c0,0.104-0.005,0.219-0.016,0.344
		c-0.011,0.125-0.016,0.292-0.016,0.5c0,0.125,0.005,0.24,0.016,0.344c0.01,0.104,0.016,0.219,0.016,0.344
		c-0.021,0.229-0.042,0.354-0.062,0.375c0.042,0.146,0.062,0.281,0.062,0.406s0.01,0.229,0.031,0.312
		c0,0.292-0.031,0.511-0.094,0.656c0.021,0.271,0.021,0.458,0,0.562c0.042,0.167,0.042,0.302,0,0.406v0.656c0,0.042,0,0.099,0,0.172
		c0,0.073-0.011,0.162-0.031,0.266c0,0.062-0.005,0.13-0.016,0.203c-0.011,0.073-0.016,0.13-0.016,0.172v0.188l-0.031,0.5v0.219
		c0,0.104-0.021,0.219-0.062,0.344l-0.188,0.344c0,0.083-0.005,0.161-0.016,0.234c-0.011,0.073-0.037,0.151-0.078,0.234
		c0.021,0.167,0.016,0.297-0.016,0.391s-0.068,0.182-0.109,0.266c0,0.021-0.005,0.052-0.016,0.094
		c-0.011,0.042-0.016,0.083-0.016,0.125c-0.021,0.062-0.031,0.114-0.031,0.156l-0.156,0.25c0,0.062-0.011,0.125-0.031,0.188
		c-0.021,0.062-0.042,0.114-0.062,0.156c-0.104,0.229-0.172,0.391-0.203,0.484s-0.058,0.161-0.078,0.203
		c-0.104,0.167-0.172,0.276-0.203,0.328c-0.031,0.052-0.058,0.099-0.078,0.141c-0.083,0.104-0.146,0.172-0.188,0.203
		c-0.042,0.031-0.083,0.067-0.125,0.109l-0.219,0.219l-0.094,0.062c-0.146,0.167-0.24,0.271-0.281,0.312
		c-0.042,0.042-0.083,0.073-0.125,0.094c-0.042,0.042-0.068,0.073-0.078,0.094c-0.011,0.021-0.037,0.042-0.078,0.062
		c-0.042,0.021-0.073,0.042-0.094,0.062l-0.281,0.188l-0.375,0.188c-0.167,0.083-0.266,0.13-0.297,0.141
		c-0.031,0.01-0.068,0.016-0.109,0.016c-0.312,0.125-0.526,0.198-0.641,0.219c-0.115,0.021-0.203,0.042-0.266,0.062
		c-0.188,0-0.302,0.005-0.344,0.016c-0.042,0.01-0.094,0.047-0.156,0.109c-0.167,0.021-0.271,0.031-0.312,0.031
		c-0.042,0-0.083,0-0.125,0c-0.188,0.083-0.406,0.104-0.656,0.062c-0.083,0.021-0.177,0.031-0.281,0.031
		c-0.104,0-0.208-0.021-0.312-0.062c-0.104,0-0.183-0.011-0.234-0.031c-0.052-0.021-0.099-0.042-0.141-0.062
		c-0.167-0.021-0.287-0.037-0.359-0.047c-0.073-0.011-0.13-0.026-0.172-0.047c-0.292-0.042-0.49-0.083-0.594-0.125
		c-0.104-0.042-0.177-0.083-0.219-0.125c-0.062-0.042-0.136-0.073-0.219-0.094c-0.083-0.021-0.167-0.073-0.25-0.156
		c-0.125-0.062-0.229-0.12-0.312-0.172c-0.083-0.052-0.156-0.13-0.219-0.234c-0.062-0.042-0.125-0.068-0.188-0.078
		c-0.062-0.011-0.115-0.047-0.156-0.109c-0.146-0.104-0.229-0.219-0.25-0.344l-0.25-0.25c-0.125-0.146-0.203-0.255-0.234-0.328
		c-0.031-0.073-0.099-0.13-0.203-0.172c-0.042-0.104-0.094-0.208-0.156-0.312c-0.042-0.062-0.083-0.104-0.125-0.125
		c0-0.083-0.011-0.167-0.031-0.25c-0.021-0.104-0.094-0.24-0.219-0.406c-0.021-0.229-0.052-0.438-0.094-0.625
		c-0.021-0.146-0.037-0.25-0.047-0.312c-0.011-0.062-0.016-0.115-0.016-0.156c0-0.042,0-0.078,0-0.109s0-0.099,0-0.203
		c0-0.125-0.005-0.234-0.016-0.328c-0.011-0.094-0.016-0.182-0.016-0.266l0.062-0.375l0.188-0.188l0.188-0.188
		c0.229-0.125,0.385-0.192,0.469-0.203c0.083-0.01,0.177,0.005,0.281,0.047c0.125,0.042,0.213,0.062,0.266,0.062
		c0.052,0,0.099,0.011,0.141,0.031l0.5,0.219c0.062,0.083,0.114,0.167,0.156,0.25c0.042,0.062,0.073,0.125,0.094,0.188
		c0.021,0.062,0.042,0.104,0.062,0.125c0.042,0.125,0.073,0.208,0.094,0.25c0.021,0.042,0.031,0.073,0.031,0.094
		c0,0.062,0.01,0.114,0.031,0.156c0,0.021,0.005,0.036,0.016,0.047c0.01,0.01,0.016,0.026,0.016,0.047
		c0,0.021,0.01,0.042,0.031,0.062c0.021,0.042,0.047,0.104,0.078,0.188c0.031,0.083,0.036,0.177,0.016,0.281
		c0.042,0.167,0.099,0.312,0.172,0.438c0.073,0.125,0.13,0.229,0.172,0.312c0.083,0.083,0.141,0.146,0.172,0.188
		c0.031,0.042,0.067,0.073,0.109,0.094c0.083,0.146,0.135,0.229,0.156,0.25c0.021,0.021,0.042,0.042,0.062,0.062
		c0.25,0.104,0.5,0.229,0.75,0.375c0.229-0.042,0.479-0.021,0.75,0.062l0.938-0.219c0.146-0.042,0.26-0.068,0.344-0.078
		c0.083-0.011,0.146-0.026,0.188-0.047c0.146-0.083,0.229-0.13,0.25-0.141c0.021-0.011,0.042-0.016,0.062-0.016
		c0.188-0.104,0.312-0.167,0.375-0.188c0.062-0.021,0.114-0.042,0.156-0.062c0.167-0.104,0.266-0.177,0.297-0.219
		c0.031-0.042,0.057-0.083,0.078-0.125c0.125-0.167,0.208-0.287,0.25-0.359c0.042-0.073,0.073-0.162,0.094-0.266l0.281-0.562
		c0.042-0.104,0.073-0.183,0.094-0.234c0.021-0.052,0.042-0.099,0.062-0.141c0.042-0.167,0.062-0.271,0.062-0.312
		c0-0.042,0-0.083,0-0.125c0.021-0.229,0.042-0.391,0.062-0.484c0.021-0.094,0.052-0.172,0.094-0.234
		c0.042-0.229,0.078-0.385,0.109-0.469c0.031-0.083,0.057-0.177,0.078-0.281c0.042-0.125,0.062-0.208,0.062-0.25
		c0-0.042,0-0.083,0-0.125c0-0.167,0.031-0.344,0.094-0.531c-0.021-0.125-0.031-0.203-0.031-0.234s0-0.067,0-0.109
		c-0.167,0.083-0.281,0.141-0.344,0.172s-0.125,0.047-0.188,0.047c-0.208,0.146-0.37,0.245-0.484,0.297
		c-0.115,0.052-0.234,0.089-0.359,0.109c-0.458,0.021-0.844,0.094-1.156,0.219c-0.083,0.042-0.162,0.068-0.234,0.078
		c-0.073,0.011-0.162,0.016-0.266,0.016c-0.229,0.021-0.438,0.031-0.625,0.031s-0.354-0.062-0.5-0.188l-0.812-0.031l-0.656-0.156
		c-0.083-0.042-0.146-0.073-0.188-0.094c-0.042-0.021-0.083-0.052-0.125-0.094c-0.104-0.021-0.24-0.073-0.406-0.156
		c-0.167-0.125-0.271-0.203-0.312-0.234c-0.042-0.031-0.073-0.047-0.094-0.047c-0.104-0.042-0.203-0.078-0.297-0.109
		s-0.172-0.078-0.234-0.141c-0.042-0.042-0.078-0.078-0.109-0.109s-0.099-0.067-0.203-0.109c-0.104-0.167-0.167-0.266-0.188-0.297
		c-0.021-0.031-0.042-0.067-0.062-0.109c-0.25-0.25-0.417-0.458-0.5-0.625c-0.104-0.104-0.172-0.177-0.203-0.219
		c-0.031-0.042-0.058-0.083-0.078-0.125c-0.125-0.188-0.203-0.323-0.234-0.406c-0.031-0.083-0.068-0.156-0.109-0.219
		c-0.125-0.146-0.198-0.239-0.219-0.281c-0.021-0.042-0.031-0.073-0.031-0.094c-0.083-0.125-0.125-0.239-0.125-0.344
		c0-0.104-0.011-0.177-0.031-0.219c-0.104-0.292-0.167-0.479-0.188-0.562c-0.021-0.083-0.042-0.146-0.062-0.188
		c-0.042-0.083-0.062-0.177-0.062-0.281v-0.188c-0.021-0.042-0.031-0.104-0.031-0.188c-0.042-0.125-0.042-0.229,0-0.312
		c-0.021-0.104-0.037-0.208-0.047-0.312c-0.011-0.104,0.005-0.219,0.047-0.344c-0.021-0.104-0.031-0.188-0.031-0.25s0-0.125,0-0.188
		l-0.094-0.656c-0.042-0.146-0.052-0.281-0.031-0.406c-0.146-0.021-0.25-0.021-0.312,0c-0.062,0.021-0.177,0.052-0.344,0.094
		c-0.229,0-0.386-0.005-0.469-0.016c-0.083-0.01-0.167-0.036-0.25-0.078l-0.688-0.281l-0.312-0.219
		c-0.146-0.188-0.239-0.349-0.281-0.484c-0.042-0.135-0.062-0.266-0.062-0.391c0-0.042,0-0.099,0-0.172
		c0-0.073,0.011-0.13,0.031-0.172c0-0.062,0.011-0.114,0.031-0.156c0.021-0.042,0.052-0.083,0.094-0.125
		c0.042-0.042,0.068-0.078,0.078-0.109c0.011-0.031,0.037-0.047,0.078-0.047c0.271-0.167,0.489-0.266,0.656-0.297
		c0.167-0.031,0.302-0.047,0.406-0.047c0.167-0.021,0.266-0.031,0.297-0.031s0.057,0,0.078,0c0.146-0.062,0.292-0.094,0.438-0.094
		c0.104-0.021,0.182-0.036,0.234-0.047c0.052-0.01,0.109-0.016,0.172-0.016c0.167,0.042,0.266,0.062,0.297,0.062s0.067,0,0.109,0
		c0.042,0.021,0.104,0.021,0.188,0c0.083-0.021,0.177-0.042,0.281-0.062c0.104-0.021,0.219-0.042,0.344-0.062
		c0.125,0.021,0.229,0.031,0.312,0.031c0.083,0.021,0.151,0.031,0.203,0.031c0.052,0,0.088,0,0.109,0
		c0.271-0.042,0.51-0.062,0.719-0.062c0.208,0,0.375-0.021,0.5-0.062c0.042-0.021,0.099-0.036,0.172-0.047
		c0.073-0.01,0.151-0.026,0.234-0.047c0.083-0.021,0.177-0.031,0.281-0.031c0.062,0,0.135,0.011,0.219,0.031
		c0.062,0.021,0.13,0.037,0.203,0.047c0.073,0.011,0.13,0.026,0.172,0.047c0.125,0.083,0.219,0.125,0.281,0.125
		c0.042,0.021,0.083,0.021,0.125,0c0.021,0.042,0.052,0.094,0.094,0.156c0.083,0.125,0.125,0.198,0.125,0.219
		c0.083,0.167,0.13,0.271,0.141,0.312c0.01,0.042,0.016,0.073,0.016,0.094c0.083,0.167,0.104,0.323,0.062,0.469
		c-0.042,0.146-0.062,0.245-0.062,0.297c0,0.052,0,0.13,0,0.234c-0.125,0.146-0.214,0.245-0.266,0.297
		c-0.052,0.052-0.099,0.109-0.141,0.172c-0.104,0.021-0.172,0.042-0.203,0.062c-0.031,0.021-0.078,0.083-0.141,0.188h-0.812
		c-0.083,0.021-0.162,0.037-0.234,0.047c-0.073,0.011-0.162,0.058-0.266,0.141c-0.042,0.229-0.052,0.448-0.031,0.656
		c0.021,0.208,0,0.396-0.062,0.562c0.021,0.083,0.042,0.146,0.062,0.188c0.021,0.042,0.031,0.083,0.031,0.125v0.125
		c-0.021,0.062-0.031,0.115-0.031,0.156c0,0.042-0.005,0.078-0.016,0.109c-0.011,0.031-0.016,0.058-0.016,0.078
		c0.021,0.125,0.036,0.219,0.047,0.281c0.01,0.062,0.026,0.125,0.047,0.188c0,0.125-0.021,0.25-0.062,0.375
		c0.021,0.042,0.042,0.104,0.062,0.188c0.021,0.083,0.052,0.156,0.094,0.219c0.042,0.083,0.083,0.167,0.125,0.25
		c0.042,0.104,0.083,0.198,0.125,0.281c0.042,0.083,0.067,0.156,0.078,0.219c0.01,0.062,0.026,0.104,0.047,0.125
		c0.104,0.167,0.172,0.261,0.203,0.281c0.031,0.021,0.067,0.042,0.109,0.062l0.344,0.344c0.146,0.208,0.344,0.359,0.594,0.453
		s0.458,0.12,0.625,0.078c0.104,0.062,0.177,0.099,0.219,0.109c0.042,0.011,0.083,0.016,0.125,0.016
		c0.188-0.021,0.328-0.021,0.422,0c0.094,0.021,0.161,0.042,0.203,0.062c0.188,0.021,0.312,0.026,0.375,0.016
		c0.062-0.01,0.104-0.026,0.125-0.047c0.208-0.042,0.338-0.067,0.391-0.078c0.052-0.01,0.099-0.026,0.141-0.047
		c0.229-0.083,0.417-0.114,0.562-0.094c0.167-0.167,0.276-0.255,0.328-0.266c0.052-0.01,0.088-0.016,0.109-0.016
		c0.104-0.083,0.177-0.146,0.219-0.188c0.042-0.042,0.083-0.083,0.125-0.125c0.104-0.062,0.188-0.109,0.25-0.141
		s0.114-0.067,0.156-0.109c0.042-0.062,0.083-0.125,0.125-0.188c0.042-0.062,0.083-0.114,0.125-0.156
		c0.083-0.292,0.156-0.479,0.219-0.562c0.062-0.083,0.104-0.146,0.125-0.188c0.104-0.292,0.156-0.469,0.156-0.531
		c0-0.021-0.005-0.057-0.016-0.109c-0.011-0.052-0.016-0.099-0.016-0.141c-0.021-0.062-0.031-0.125-0.031-0.188
		c0.021-0.062,0.042-0.135,0.062-0.219c0.021-0.042,0.031-0.088,0.031-0.141c0-0.052,0.01-0.088,0.031-0.109v-0.75
		c0.021-0.104,0.031-0.203,0.031-0.297s0-0.172,0-0.234c-0.042-0.167-0.062-0.292-0.062-0.375c0-0.062,0-0.167,0-0.312
		c0-0.146,0.021-0.271,0.062-0.375c0.042-0.167,0.067-0.276,0.078-0.328c0.01-0.052,0.036-0.109,0.078-0.172v-0.5
		c-0.167,0-0.292,0.005-0.375,0.016c-0.083,0.011-0.177,0.016-0.281,0.016c-0.208,0.042-0.354,0.062-0.438,0.062
		c-0.083,0-0.177-0.021-0.281-0.062l-0.625-0.156l-0.469-0.469c-0.021-0.146-0.052-0.281-0.094-0.406
		c-0.042-0.104-0.073-0.208-0.094-0.312c-0.021-0.104-0.021-0.188,0-0.25c0-0.042,0.021-0.146,0.062-0.312
		c0.021-0.083,0.042-0.156,0.062-0.219c0.062-0.042,0.125-0.094,0.188-0.156c0.104-0.104,0.208-0.177,0.312-0.219
		c0.271-0.083,0.484-0.125,0.641-0.125s0.286,0,0.391,0c0.229,0.021,0.406,0.021,0.531,0c0.083-0.021,0.161-0.042,0.234-0.062
		c0.073-0.021,0.141-0.021,0.203,0c0.146-0.062,0.292-0.052,0.438,0.031l0.5-0.094c0.083-0.042,0.146-0.062,0.188-0.062
		c0.042,0,0.104-0.021,0.188-0.062c0.229,0.021,0.385,0.021,0.469,0c0.062,0,0.156-0.005,0.281-0.016
		c0.125-0.01,0.239,0.016,0.344,0.078c0.104-0.042,0.208-0.052,0.312-0.031c0.104,0.021,0.198,0.052,0.281,0.094h0.344
		c0.083,0,0.156-0.01,0.219-0.031l0.188,0.125c0.125,0.083,0.219,0.125,0.281,0.125c0.021,0,0.052,0.011,0.094,0.031
		c0.042,0.021,0.083,0.042,0.125,0.062l0.125,0.062l0.125,0.219C102.993,14.219,103.066,14.594,102.879,14.948z"/>
	<path d="M119.723,24.261c-0.042,0.146-0.062,0.234-0.062,0.266s-0.011,0.058-0.031,0.078c0,0.021-0.042,0.073-0.125,0.156
		l-0.156,0.156c-0.021,0.042-0.042,0.073-0.062,0.094l-0.094,0.094c-0.146,0.104-0.271,0.188-0.375,0.25
		c-0.104,0.062-0.229,0.115-0.375,0.156l-0.375,0.094c-0.104,0-0.183-0.005-0.234-0.016c-0.052-0.01-0.099-0.026-0.141-0.047
		c-0.25-0.021-0.448-0.021-0.594,0c-0.083,0-0.183,0-0.297,0c-0.115,0-0.224-0.021-0.328-0.062c-0.167,0-0.308,0.011-0.422,0.031
		c-0.115,0.021-0.224,0.031-0.328,0.031c-0.083,0-0.172-0.01-0.266-0.031c-0.094-0.021-0.193-0.052-0.297-0.094
		c-0.104-0.042-0.208-0.083-0.312-0.125c-0.062-0.083-0.115-0.167-0.156-0.25c-0.042-0.062-0.078-0.125-0.109-0.188
		s-0.047-0.114-0.047-0.156c-0.104-0.333-0.172-0.578-0.203-0.734s-0.047-0.286-0.047-0.391c-0.146,0.104-0.24,0.172-0.281,0.203
		c-0.042,0.031-0.083,0.068-0.125,0.109l-0.5,0.094c-0.104,0.104-0.193,0.183-0.266,0.234c-0.073,0.052-0.214,0.12-0.422,0.203
		c-0.146,0.083-0.261,0.141-0.344,0.172c-0.083,0.031-0.156,0.068-0.219,0.109c-0.125,0.062-0.219,0.136-0.281,0.219
		c-0.167,0.042-0.297,0.078-0.391,0.109s-0.172,0.047-0.234,0.047c-0.083,0.021-0.151,0.037-0.203,0.047
		c-0.052,0.011-0.109,0.016-0.172,0.016c-0.042,0.021-0.083,0.037-0.125,0.047c-0.042,0.011-0.083,0.037-0.125,0.078
		c-0.062,0.042-0.104,0.073-0.125,0.094l-0.375,0.062c-0.104,0.021-0.198,0.037-0.281,0.047c-0.083,0.011-0.136,0.016-0.156,0.016
		c-0.229,0-0.401,0.011-0.516,0.031c-0.115,0.021-0.234-0.042-0.359-0.188c-0.229-0.042-0.386-0.067-0.469-0.078
		c-0.083-0.01-0.156-0.026-0.219-0.047c-0.042-0.021-0.094-0.042-0.156-0.062c-0.062-0.021-0.136-0.052-0.219-0.094
		c-0.083-0.042-0.156-0.073-0.219-0.094c-0.062-0.021-0.136-0.052-0.219-0.094c-0.083,0-0.188-0.042-0.312-0.125
		c-0.083-0.042-0.146-0.083-0.188-0.125c-0.042-0.042-0.094-0.083-0.156-0.125c-0.042-0.042-0.089-0.073-0.141-0.094
		c-0.052-0.021-0.089-0.052-0.109-0.094c-0.062-0.042-0.125-0.083-0.188-0.125c-0.062-0.042-0.125-0.094-0.188-0.156
		c-0.083-0.042-0.188-0.104-0.312-0.188l-0.375-0.25c-0.104-0.062-0.188-0.13-0.25-0.203c-0.062-0.073-0.125-0.141-0.188-0.203
		c-0.042-0.042-0.094-0.099-0.156-0.172c-0.062-0.073-0.146-0.161-0.25-0.266c-0.021-0.125-0.042-0.224-0.062-0.297
		c-0.021-0.073-0.073-0.172-0.156-0.297c-0.021-0.167-0.037-0.276-0.047-0.328c-0.011-0.052-0.026-0.099-0.047-0.141
		c-0.021-0.062-0.042-0.141-0.062-0.234c-0.021-0.094-0.021-0.192,0-0.297c-0.042-0.062-0.068-0.125-0.078-0.188
		c-0.011-0.062-0.026-0.114-0.047-0.156c-0.021-0.062-0.031-0.12-0.031-0.172c0-0.052-0.011-0.109-0.031-0.172
		c0-0.042-0.005-0.083-0.016-0.125c-0.011-0.042-0.037-0.114-0.078-0.219c0.042-0.125,0.062-0.203,0.062-0.234
		s-0.011-0.067-0.031-0.109c0.042-0.312,0.057-0.526,0.047-0.641c-0.011-0.114-0.037-0.234-0.078-0.359
		c0.042-0.104,0.078-0.172,0.109-0.203s0.047-0.067,0.047-0.109c0-0.167,0.005-0.281,0.016-0.344
		c0.01-0.062,0.036-0.114,0.078-0.156c0.021-0.042,0.042-0.099,0.062-0.172c0.021-0.073,0.042-0.141,0.062-0.203
		c0.021-0.083,0.042-0.156,0.062-0.219l0.125-0.25c0.083-0.167,0.146-0.271,0.188-0.312c0.042-0.146,0.078-0.26,0.109-0.344
		c0.031-0.083,0.067-0.188,0.109-0.312c0.062-0.125,0.13-0.255,0.203-0.391c0.073-0.135,0.172-0.255,0.297-0.359
		c0.083-0.188,0.161-0.328,0.234-0.422c0.073-0.094,0.151-0.192,0.234-0.297c0.104-0.125,0.167-0.208,0.188-0.25
		c0.021-0.042,0.031-0.094,0.031-0.156c0.146-0.104,0.245-0.182,0.297-0.234c0.052-0.052,0.109-0.141,0.172-0.266
		c0.188-0.125,0.328-0.219,0.422-0.281s0.192-0.104,0.297-0.125c0.062-0.062,0.135-0.125,0.219-0.188
		c0.083-0.062,0.167-0.114,0.25-0.156c0.25-0.125,0.411-0.198,0.484-0.219c0.073-0.021,0.13-0.042,0.172-0.062
		c0.25-0.083,0.458-0.146,0.625-0.188c0.167-0.042,0.344-0.062,0.531-0.062c0.042-0.021,0.083-0.036,0.125-0.047
		c0.042-0.01,0.125-0.036,0.25-0.078c0.125,0.042,0.213,0.058,0.266,0.047c0.052-0.01,0.099-0.016,0.141-0.016
		c0.354,0,0.604-0.005,0.75-0.016c0.146-0.01,0.292-0.005,0.438,0.016c0.188,0.062,0.354,0.125,0.5,0.188
		c0.021,0.021,0.114,0.031,0.281,0.031c0.083,0,0.156,0.011,0.219,0.031l0.375,0.094c0.188,0.083,0.359,0.162,0.516,0.234
		c0.156,0.073,0.276,0.162,0.359,0.266c0.042-0.188,0.052-0.338,0.031-0.453c-0.021-0.114-0.031-0.203-0.031-0.266
		c-0.042-0.229-0.068-0.385-0.078-0.469c-0.011-0.083-0.016-0.167-0.016-0.25c0-0.167-0.005-0.328-0.016-0.484
		c-0.011-0.156-0.026-0.297-0.047-0.422c-0.104-0.125-0.136-0.25-0.094-0.375c0.042-0.167,0.062-0.271,0.062-0.312
		c0-0.042-0.011-0.083-0.031-0.125c-0.125-0.292-0.203-0.542-0.234-0.75c-0.031-0.208-0.058-0.406-0.078-0.594
		c-0.125-0.021-0.24-0.016-0.344,0.016c-0.104,0.031-0.198,0.047-0.281,0.047c-0.104,0-0.219-0.021-0.344-0.062
		c-0.271,0-0.438-0.005-0.5-0.016c-0.062-0.01-0.115-0.026-0.156-0.047c-0.25-0.021-0.427-0.036-0.531-0.047
		c-0.104-0.01-0.208-0.036-0.312-0.078c-0.229-0.104-0.386-0.198-0.469-0.281c-0.083-0.083-0.146-0.146-0.188-0.188l-0.031-0.625
		c0.021-0.062,0.062-0.125,0.125-0.188c0.083-0.125,0.198-0.219,0.344-0.281c0.167-0.083,0.271-0.141,0.312-0.172
		c0.042-0.031,0.094-0.099,0.156-0.203c0.104,0,0.177-0.005,0.219-0.016c0.042-0.01,0.125-0.067,0.25-0.172
		c0.167,0,0.266-0.005,0.297-0.016c0.031-0.01,0.067-0.026,0.109-0.047c0.229-0.042,0.37-0.067,0.422-0.078
		c0.052-0.01,0.099-0.026,0.141-0.047c0.104-0.021,0.188-0.042,0.25-0.062c0.062-0.021,0.146-0.031,0.25-0.031
		c0.271,0,0.469-0.021,0.594-0.062c0.104,0.021,0.192,0.031,0.266,0.031c0.073,0,0.141,0,0.203,0
		c0.25,0.042,0.422,0.068,0.516,0.078c0.094,0.011,0.172,0.037,0.234,0.078c0.062,0.021,0.13,0.047,0.203,0.078
		c0.073,0.031,0.182,0.068,0.328,0.109c0.167,0.25,0.281,0.49,0.344,0.719c0.062,0.229,0.114,0.458,0.156,0.688
		c0.042,0.208,0.067,0.417,0.078,0.625c0.01,0.208,0.026,0.396,0.047,0.562c0.042,0.104,0.083,0.219,0.125,0.344
		c0.042,0.083,0.062,0.141,0.062,0.172s0.01,0.099,0.031,0.203c0.021,0.208,0.036,0.354,0.047,0.438
		c0.01,0.083,0.026,0.146,0.047,0.188c0.021,0.062,0.031,0.12,0.031,0.172c0,0.052,0.01,0.12,0.031,0.203v0.375
		c0,0.104-0.005,0.203-0.016,0.297c-0.011,0.094-0.005,0.193,0.016,0.297c0.042,0.208,0.067,0.391,0.078,0.547
		c0.01,0.156,0.005,0.308-0.016,0.453c-0.042,0.208-0.062,0.339-0.062,0.391c0,0.052,0,0.089,0,0.109
		c0.042,0.188,0.073,0.323,0.094,0.406c0.021,0.083,0.031,0.156,0.031,0.219c-0.021,0.104-0.026,0.177-0.016,0.219
		c0.01,0.042,0.016,0.083,0.016,0.125c-0.042,0.208-0.068,0.37-0.078,0.484c-0.011,0.115-0.016,0.224-0.016,0.328
		c0.042,0.188,0.067,0.308,0.078,0.359c0.01,0.052,0.036,0.12,0.078,0.203c-0.021,0.188-0.031,0.302-0.031,0.344
		c0,0.042,0.01,0.062,0.031,0.062c0.021,0.229,0.036,0.401,0.047,0.516c0.01,0.115,0.005,0.224-0.016,0.328
		c0,0.146-0.005,0.266-0.016,0.359c-0.011,0.094-0.026,0.183-0.047,0.266c0.021,0.188,0.036,0.328,0.047,0.422
		c0.01,0.094,0.005,0.172-0.016,0.234c0.042,0.167,0.067,0.281,0.078,0.344c0.01,0.062,0.016,0.115,0.016,0.156
		c0,0.188,0.01,0.339,0.031,0.453c0.021,0.115,0.031,0.255,0.031,0.422c0.042,0.167,0.062,0.271,0.062,0.312
		c0,0.042,0,0.073,0,0.094v0.469c-0.021,0.167-0.016,0.276,0.016,0.328c0.031,0.052,0.067,0.109,0.109,0.172v0.5
		c0.083,0.333,0.141,0.63,0.172,0.891c0.031,0.261,0.057,0.505,0.078,0.734c0.292-0.104,0.578-0.146,0.859-0.125
		c0.281,0.021,0.505,0.062,0.672,0.125c0.083,0.021,0.229,0.073,0.438,0.156c0.104,0.042,0.208,0.094,0.312,0.156
		c0.104,0.062,0.239,0.177,0.406,0.344c0.021,0.208,0.036,0.354,0.047,0.438C119.717,24.157,119.723,24.219,119.723,24.261z
		 M113.91,20.229c-0.021-0.333-0.031-0.604-0.031-0.812c0-0.208-0.021-0.396-0.062-0.562c-0.042-0.104-0.062-0.188-0.062-0.25
		s0-0.125,0-0.188c0.021-0.167,0.031-0.271,0.031-0.312c0-0.042,0.01-0.073,0.031-0.094c-0.062-0.167-0.073-0.364-0.031-0.594
		c-0.021-0.104-0.031-0.203-0.031-0.297s0-0.172,0-0.234c-0.042-0.083-0.068-0.161-0.078-0.234c-0.011-0.073-0.026-0.13-0.047-0.172
		c-0.021-0.062-0.042-0.114-0.062-0.156l-0.312-0.75c-0.104-0.062-0.198-0.125-0.281-0.188c-0.083-0.042-0.156-0.083-0.219-0.125
		c-0.062-0.042-0.104-0.073-0.125-0.094c-0.188-0.083-0.302-0.146-0.344-0.188c-0.042-0.042-0.094-0.083-0.156-0.125l-0.531-0.281
		c-0.021,0-0.073,0.005-0.156,0.016c-0.083,0.011-0.177-0.005-0.281-0.047c-0.104-0.021-0.193-0.036-0.266-0.047
		c-0.073-0.01-0.13-0.016-0.172-0.016c-0.146,0.021-0.25,0.037-0.312,0.047c-0.062,0.011-0.136,0.016-0.219,0.016
		c-0.292,0-0.5,0.021-0.625,0.062c-0.021,0-0.136,0.094-0.344,0.281c-0.083,0.083-0.177,0.136-0.281,0.156
		c-0.104,0.021-0.208,0.062-0.312,0.125c-0.062,0.042-0.115,0.104-0.156,0.188c-0.042,0.083-0.083,0.136-0.125,0.156
		c-0.167,0.104-0.276,0.177-0.328,0.219c-0.052,0.042-0.099,0.083-0.141,0.125c-0.062,0.083-0.125,0.162-0.188,0.234
		c-0.062,0.073-0.136,0.13-0.219,0.172c-0.104,0.125-0.177,0.208-0.219,0.25c-0.042,0.042-0.083,0.104-0.125,0.188l-0.25,0.25
		c-0.104,0.208-0.183,0.38-0.234,0.516c-0.052,0.136-0.099,0.255-0.141,0.359c-0.062,0.25-0.104,0.552-0.125,0.906
		c-0.042,0.167-0.062,0.261-0.062,0.281c0,0.021,0,0.042,0,0.062v0.438l-0.031,0.594l0.031,0.344
		c0.042,0.062,0.083,0.125,0.125,0.188c0.042,0.062,0.073,0.146,0.094,0.25c0.042,0.167,0.062,0.281,0.062,0.344
		c0.042,0.104,0.078,0.177,0.109,0.219c0.031,0.042,0.067,0.094,0.109,0.156c0.042,0.062,0.088,0.12,0.141,0.172
		c0.052,0.052,0.182,0.12,0.391,0.203c0.104,0.125,0.182,0.214,0.234,0.266c0.052,0.052,0.099,0.099,0.141,0.141
		c0.167,0.062,0.297,0.104,0.391,0.125c0.094,0.021,0.213,0.042,0.359,0.062c0.062,0.104,0.13,0.167,0.203,0.188
		c0.073,0.021,0.13,0.031,0.172,0.031c0.062,0,0.125,0.005,0.188,0.016c0.062,0.011,0.125,0.016,0.188,0.016
		c0.25-0.062,0.417-0.104,0.5-0.125c0.229-0.042,0.417-0.104,0.562-0.188c0.229,0.042,0.396,0.042,0.5,0
		c0.125-0.062,0.203-0.104,0.234-0.125c0.031-0.021,0.057-0.042,0.078-0.062l0.219-0.125l0.125-0.062
		c0.083-0.042,0.135-0.062,0.156-0.062c0.042-0.042,0.104-0.083,0.188-0.125c0.083-0.042,0.177-0.062,0.281-0.062
		c0.042-0.042,0.094-0.078,0.156-0.109s0.135-0.057,0.219-0.078c0.104-0.062,0.177-0.114,0.219-0.156
		c0.042-0.042,0.094-0.114,0.156-0.219c0.083-0.062,0.146-0.12,0.188-0.172c0.042-0.052,0.094-0.099,0.156-0.141
		c0.146-0.104,0.255-0.192,0.328-0.266c0.073-0.073,0.13-0.141,0.172-0.203c0.125-0.104,0.198-0.172,0.219-0.203
		C113.899,20.308,113.91,20.271,113.91,20.229z"/>
	<path d="M134.598,24.011c0,0.146-0.011,0.271-0.031,0.375c-0.021,0.104-0.042,0.203-0.062,0.297
		c-0.021,0.094-0.052,0.162-0.094,0.203c-0.042,0.083-0.083,0.146-0.125,0.188c-0.042,0.042-0.083,0.073-0.125,0.094
		c-0.042,0.042-0.083,0.073-0.125,0.094c-0.021,0.021-0.052,0.031-0.094,0.031c-0.021,0-0.042,0.011-0.062,0.031
		c-0.229,0.104-0.422,0.183-0.578,0.234c-0.156,0.052-0.349,0.068-0.578,0.047c-0.167-0.042-0.297-0.067-0.391-0.078
		c-0.094-0.01-0.183-0.016-0.266-0.016c-0.104,0-0.203,0.005-0.297,0.016c-0.094,0.011-0.193,0.016-0.297,0.016
		c-0.167-0.021-0.271-0.026-0.312-0.016c-0.042,0.011-0.073,0.016-0.094,0.016c-0.229-0.042-0.386-0.073-0.469-0.094
		c-0.083-0.021-0.156-0.052-0.219-0.094c-0.021,0-0.047-0.01-0.078-0.031c-0.031-0.021-0.068-0.042-0.109-0.062
		c-0.062-0.021-0.115-0.052-0.156-0.094c-0.042-0.062-0.073-0.135-0.094-0.219c-0.021-0.062-0.042-0.12-0.062-0.172
		c-0.021-0.052-0.021-0.088,0-0.109c-0.062-0.062-0.078-0.114-0.047-0.156c0.031-0.042,0.026-0.125-0.016-0.25
		c0.042-0.062,0.047-0.156,0.016-0.281s-0.058-0.292-0.078-0.5c-0.25,0.229-0.458,0.396-0.625,0.5
		c-0.167,0.104-0.312,0.198-0.438,0.281c-0.25,0.125-0.438,0.292-0.562,0.5c-0.229,0.021-0.386,0.052-0.469,0.094
		c-0.083,0.042-0.167,0.104-0.25,0.188c-0.167,0.042-0.297,0.073-0.391,0.094c-0.094,0.021-0.162,0.042-0.203,0.062
		c-0.25,0.083-0.406,0.136-0.469,0.156c-0.062,0.021-0.115,0.031-0.156,0.031c-0.125,0.062-0.208,0.099-0.25,0.109
		c-0.042,0.011-0.083,0.026-0.125,0.047c-0.083,0.083-0.198,0.146-0.344,0.188c-0.167,0.042-0.354,0.062-0.562,0.062h-0.375
		l-0.438-0.125c-0.104-0.042-0.208-0.073-0.312-0.094c-0.104-0.021-0.167-0.031-0.188-0.031c-0.104-0.042-0.172-0.062-0.203-0.062
		s-0.078,0-0.141,0c-0.167-0.083-0.281-0.13-0.344-0.141c-0.062-0.01-0.167-0.016-0.312-0.016c-0.083-0.104-0.156-0.167-0.219-0.188
		c-0.062-0.021-0.208-0.052-0.438-0.094c-0.104-0.167-0.167-0.266-0.188-0.297c-0.021-0.031-0.042-0.057-0.062-0.078
		c-0.312-0.25-0.531-0.458-0.656-0.625c-0.125-0.167-0.219-0.333-0.281-0.5c-0.042-0.125-0.083-0.271-0.125-0.438
		c-0.021-0.083-0.073-0.188-0.156-0.312c-0.042-0.208-0.062-0.37-0.062-0.484c0-0.114,0.01-0.213,0.031-0.297
		c0-0.104,0.021-0.245,0.062-0.422c0.042-0.177,0.094-0.307,0.156-0.391c0.062-0.083,0.114-0.234,0.156-0.453
		c0.042-0.219,0.094-0.38,0.156-0.484c0.042-0.104,0.114-0.234,0.219-0.391c0.104-0.156,0.177-0.276,0.219-0.359l0.156-0.344
		c0.104-0.104,0.172-0.182,0.203-0.234c0.031-0.052,0.067-0.13,0.109-0.234c0.208-0.229,0.354-0.38,0.438-0.453
		c0.083-0.073,0.146-0.13,0.188-0.172c0.125-0.125,0.219-0.208,0.281-0.25c0.062-0.062,0.135-0.125,0.219-0.188
		c0.083-0.062,0.177-0.125,0.281-0.188c0.167-0.104,0.281-0.177,0.344-0.219c0.062-0.042,0.135-0.083,0.219-0.125
		c0.229-0.167,0.391-0.276,0.484-0.328c0.094-0.052,0.213-0.13,0.359-0.234c0.104-0.042,0.177-0.062,0.219-0.062
		c0.042,0,0.083-0.01,0.125-0.031c0.25-0.062,0.438-0.125,0.562-0.188s0.25-0.146,0.375-0.25c0.396-0.062,0.729-0.135,1-0.219
		c0.229-0.042,0.38-0.062,0.453-0.062c0.073,0,0.13-0.01,0.172-0.031c0.062-0.021,0.13-0.036,0.203-0.047
		c0.073-0.01,0.192-0.026,0.359-0.047c0.104,0.042,0.208,0.073,0.312,0.094c0.104,0.021,0.198,0.042,0.281,0.062
		c0.083,0.021,0.177,0.031,0.281,0.031l-0.125-1.062c-0.042-0.167-0.083-0.292-0.125-0.375c-0.042-0.062-0.083-0.13-0.125-0.203
		c-0.042-0.073-0.083-0.13-0.125-0.172c-0.083-0.125-0.208-0.224-0.375-0.297c-0.167-0.073-0.292-0.12-0.375-0.141
		c-0.104-0.021-0.302-0.021-0.594,0c-0.146-0.042-0.25-0.057-0.312-0.047c-0.062,0.011-0.115,0.016-0.156,0.016
		c-0.167,0.021-0.276,0.031-0.328,0.031c-0.052,0-0.099,0-0.141,0c-0.146-0.021-0.24-0.031-0.281-0.031c-0.042,0-0.083,0-0.125,0
		c-0.708,0.167-1.073,0.261-1.094,0.281c-0.083,0.083-0.172,0.141-0.266,0.172s-0.162,0.058-0.203,0.078
		c-0.062,0.042-0.12,0.078-0.172,0.109c-0.052,0.031-0.099,0.068-0.141,0.109c-0.062,0.042-0.104,0.073-0.125,0.094l-0.469,0.406
		c-0.042,0.042-0.073,0.068-0.094,0.078c-0.021,0.011-0.042,0.016-0.062,0.016l-0.094,0.062c-0.104,0.104-0.208,0.219-0.312,0.344
		c-0.021,0.021-0.052,0.047-0.094,0.078c-0.042,0.031-0.083,0.068-0.125,0.109l-0.188,0.156l-0.25,0.281l-0.312,0.188
		c-0.062,0-0.136,0-0.219,0h-0.406c-0.167-0.083-0.339-0.198-0.516-0.344c-0.177-0.146-0.276-0.354-0.297-0.625
		c0-0.229,0.052-0.474,0.156-0.734c0.104-0.26,0.229-0.463,0.375-0.609c0.104-0.188,0.25-0.385,0.438-0.594
		c0.188-0.208,0.375-0.354,0.562-0.438c0.062-0.021,0.135-0.073,0.219-0.156c0.104-0.104,0.177-0.172,0.219-0.203
		c0.042-0.031,0.083-0.088,0.125-0.172c0.125-0.062,0.208-0.109,0.25-0.141c0.042-0.031,0.094-0.088,0.156-0.172
		c0.312-0.104,0.505-0.172,0.578-0.203c0.073-0.031,0.13-0.047,0.172-0.047c0.167-0.083,0.281-0.135,0.344-0.156
		c0.062-0.021,0.125-0.042,0.188-0.062c0.146-0.083,0.292-0.146,0.438-0.188c0.104-0.021,0.172-0.042,0.203-0.062
		c0.031-0.021,0.078-0.052,0.141-0.094c0.062,0.021,0.135,0.031,0.219,0.031c0.083,0,0.167,0,0.25,0
		c0.271-0.062,0.442-0.104,0.516-0.125c0.073-0.021,0.13-0.042,0.172-0.062c0.042,0,0.099-0.01,0.172-0.031
		c0.073-0.021,0.161-0.021,0.266,0c0.146,0.042,0.245,0.068,0.297,0.078c0.052,0.011,0.099,0.016,0.141,0.016
		c0.042-0.021,0.083-0.036,0.125-0.047c0.042-0.01,0.114-0.036,0.219-0.078c0.125,0.042,0.208,0.062,0.25,0.062
		c0.042,0,0.083,0,0.125,0c0.208,0.042,0.323,0.062,0.344,0.062c0.021,0,0.047,0,0.078,0s0.13-0.01,0.297-0.031
		c0.188,0.042,0.307,0.073,0.359,0.094c0.052,0.021,0.088,0.042,0.109,0.062c0.25,0.104,0.406,0.167,0.469,0.188
		c0.062,0.021,0.114,0.042,0.156,0.062c0.083,0.021,0.229,0.083,0.438,0.188c0.104,0.083,0.177,0.13,0.219,0.141
		c0.042,0.011,0.104,0.037,0.188,0.078c0.104,0.188,0.188,0.281,0.25,0.281s0.104,0,0.125,0c0.083,0.042,0.135,0.104,0.156,0.188
		c0.021,0.083,0.094,0.156,0.219,0.219c0.042,0.188,0.073,0.308,0.094,0.359c0.021,0.052,0.042,0.099,0.062,0.141
		c0.042,0.062,0.073,0.12,0.094,0.172c0.021,0.052,0.052,0.109,0.094,0.172c0.062,0.104,0.109,0.188,0.141,0.25
		s0.078,0.125,0.141,0.188c0.062,0.146,0.109,0.281,0.141,0.406s0.067,0.24,0.109,0.344c0.042,0.167,0.067,0.287,0.078,0.359
		c0.01,0.073,0.047,0.183,0.109,0.328c0,0.208,0.021,0.354,0.062,0.438c0,0.042,0.01,0.099,0.031,0.172
		c0.021,0.073,0.031,0.13,0.031,0.172c0,0.042,0.01,0.146,0.031,0.312c0.021,0.167,0.042,0.292,0.062,0.375
		c0.021,0.042,0.031,0.099,0.031,0.172c0,0.073,0.01,0.151,0.031,0.234c0,0.083,0.01,0.177,0.031,0.281
		c0,0.146,0.01,0.271,0.031,0.375c0,0.104,0.005,0.198,0.016,0.281c0.01,0.083,0.016,0.146,0.016,0.188
		c0.021,0.167,0.021,0.276,0,0.328c-0.021,0.052-0.031,0.099-0.031,0.141c0.021,0.188,0.031,0.323,0.031,0.406
		c0,0.083,0,0.156,0,0.219c0,0.354,0.005,0.656,0.016,0.906c0.01,0.25,0.026,0.511,0.047,0.781c0,0.146-0.011,0.287-0.031,0.422
		c-0.021,0.136-0.031,0.266-0.031,0.391c0,0.188-0.005,0.37-0.016,0.547c-0.011,0.177-0.005,0.359,0.016,0.547
		c0.167,0.021,0.281,0.031,0.344,0.031s0.114,0,0.156,0c0.167-0.021,0.302,0,0.406,0.062c0.125,0.021,0.219,0.031,0.281,0.031
		s0.146,0.011,0.25,0.031c0.146,0.104,0.234,0.172,0.266,0.203s0.067,0.068,0.109,0.109L134.598,24.011z M129.723,19.604
		c0-0.042-0.005-0.104-0.016-0.188c-0.011-0.083-0.016-0.177-0.016-0.281v-0.375c-0.042-0.125-0.083-0.239-0.125-0.344
		c-0.083-0.208-0.136-0.333-0.156-0.375c-0.062-0.021-0.167-0.036-0.312-0.047c-0.146-0.01-0.292-0.01-0.438,0
		c-0.146,0.011-0.287,0.021-0.422,0.031c-0.136,0.011-0.224,0.016-0.266,0.016c-0.229,0.021-0.406,0.031-0.531,0.031
		s-0.229,0.021-0.312,0.062l-0.625,0.25c-0.167,0.062-0.292,0.094-0.375,0.094c-0.146,0.062-0.24,0.109-0.281,0.141
		c-0.042,0.031-0.083,0.058-0.125,0.078c-0.188,0.125-0.427,0.261-0.719,0.406c-0.167,0.125-0.292,0.224-0.375,0.297
		c-0.083,0.073-0.177,0.13-0.281,0.172c-0.167,0.104-0.276,0.183-0.328,0.234c-0.052,0.052-0.099,0.099-0.141,0.141
		c-0.042,0.062-0.089,0.125-0.141,0.188c-0.052,0.062-0.109,0.125-0.172,0.188c-0.104,0.25-0.208,0.464-0.312,0.641
		c-0.104,0.177-0.208,0.516-0.312,1.016c0.021,0.083,0.057,0.193,0.109,0.328c0.052,0.136,0.099,0.255,0.141,0.359
		c0.104,0.083,0.188,0.146,0.25,0.188c0.062,0.042,0.114,0.083,0.156,0.125c0.104,0.042,0.182,0.073,0.234,0.094
		c0.052,0.021,0.099,0.042,0.141,0.062c0.167,0.042,0.281,0.094,0.344,0.156h0.062c0.021,0,0.036,0.005,0.047,0.016
		c0.01,0.011,0.026,0.016,0.047,0.016c0.042,0.021,0.094,0.042,0.156,0.062c0.042,0,0.094-0.01,0.156-0.031
		c0.083-0.042,0.146-0.062,0.188-0.062c0.167-0.042,0.281-0.062,0.344-0.062s0.114,0,0.156,0c0.167-0.062,0.276-0.104,0.328-0.125
		c0.052-0.021,0.099-0.042,0.141-0.062c0.229-0.062,0.38-0.104,0.453-0.125c0.073-0.021,0.13-0.052,0.172-0.094
		c0.083-0.042,0.161-0.083,0.234-0.125c0.073-0.042,0.151-0.083,0.234-0.125c0.083-0.062,0.167-0.12,0.25-0.172
		c0.083-0.052,0.177-0.109,0.281-0.172c0.042-0.021,0.083-0.047,0.125-0.078c0.042-0.031,0.083-0.057,0.125-0.078
		c0.062-0.021,0.114-0.042,0.156-0.062l0.125-0.125c0.062-0.062,0.135-0.114,0.219-0.156c0.062-0.062,0.156-0.135,0.281-0.219
		c0.125-0.104,0.208-0.182,0.25-0.234c0.042-0.052,0.083-0.099,0.125-0.141c0.167-0.104,0.276-0.177,0.328-0.219
		c0.052-0.042,0.099-0.073,0.141-0.094l0.219-0.281c-0.042-0.229-0.047-0.417-0.016-0.562
		C129.676,19.834,129.702,19.709,129.723,19.604z"/>
	<path d="M151.191,24.261c-0.042,0.146-0.062,0.234-0.062,0.266s-0.011,0.058-0.031,0.078c0,0.021-0.042,0.073-0.125,0.156
		l-0.156,0.156c-0.021,0.042-0.042,0.073-0.062,0.094l-0.094,0.094c-0.146,0.104-0.271,0.188-0.375,0.25
		c-0.104,0.062-0.229,0.115-0.375,0.156l-0.375,0.094c-0.104,0-0.183-0.005-0.234-0.016c-0.052-0.01-0.099-0.026-0.141-0.047
		c-0.25-0.021-0.448-0.021-0.594,0c-0.083,0-0.183,0-0.297,0c-0.115,0-0.224-0.021-0.328-0.062c-0.167,0-0.308,0.011-0.422,0.031
		c-0.115,0.021-0.224,0.031-0.328,0.031c-0.083,0-0.172-0.01-0.266-0.031c-0.094-0.021-0.193-0.052-0.297-0.094
		c-0.104-0.042-0.208-0.083-0.312-0.125c-0.062-0.083-0.115-0.167-0.156-0.25c-0.042-0.062-0.078-0.125-0.109-0.188
		s-0.047-0.114-0.047-0.156c-0.104-0.333-0.172-0.578-0.203-0.734s-0.047-0.286-0.047-0.391c-0.146,0.104-0.24,0.172-0.281,0.203
		c-0.042,0.031-0.083,0.068-0.125,0.109l-0.5,0.094c-0.104,0.104-0.193,0.183-0.266,0.234c-0.073,0.052-0.214,0.12-0.422,0.203
		c-0.146,0.083-0.261,0.141-0.344,0.172c-0.083,0.031-0.156,0.068-0.219,0.109c-0.125,0.062-0.219,0.136-0.281,0.219
		c-0.167,0.042-0.297,0.078-0.391,0.109s-0.172,0.047-0.234,0.047c-0.083,0.021-0.151,0.037-0.203,0.047
		c-0.052,0.011-0.109,0.016-0.172,0.016c-0.042,0.021-0.083,0.037-0.125,0.047c-0.042,0.011-0.083,0.037-0.125,0.078
		c-0.062,0.042-0.104,0.073-0.125,0.094l-0.375,0.062c-0.104,0.021-0.198,0.037-0.281,0.047c-0.083,0.011-0.136,0.016-0.156,0.016
		c-0.229,0-0.401,0.011-0.516,0.031c-0.115,0.021-0.234-0.042-0.359-0.188c-0.229-0.042-0.386-0.067-0.469-0.078
		c-0.083-0.01-0.156-0.026-0.219-0.047c-0.042-0.021-0.094-0.042-0.156-0.062c-0.062-0.021-0.136-0.052-0.219-0.094
		c-0.083-0.042-0.156-0.073-0.219-0.094c-0.062-0.021-0.136-0.052-0.219-0.094c-0.083,0-0.188-0.042-0.312-0.125
		c-0.083-0.042-0.146-0.083-0.188-0.125c-0.042-0.042-0.094-0.083-0.156-0.125c-0.042-0.042-0.089-0.073-0.141-0.094
		c-0.052-0.021-0.089-0.052-0.109-0.094c-0.062-0.042-0.125-0.083-0.188-0.125c-0.062-0.042-0.125-0.094-0.188-0.156
		c-0.083-0.042-0.188-0.104-0.312-0.188l-0.375-0.25c-0.104-0.062-0.188-0.13-0.25-0.203c-0.062-0.073-0.125-0.141-0.188-0.203
		c-0.042-0.042-0.094-0.099-0.156-0.172c-0.062-0.073-0.146-0.161-0.25-0.266c-0.021-0.125-0.042-0.224-0.062-0.297
		c-0.021-0.073-0.073-0.172-0.156-0.297c-0.021-0.167-0.037-0.276-0.047-0.328c-0.011-0.052-0.026-0.099-0.047-0.141
		c-0.021-0.062-0.042-0.141-0.062-0.234c-0.021-0.094-0.021-0.192,0-0.297c-0.042-0.062-0.068-0.125-0.078-0.188
		c-0.011-0.062-0.026-0.114-0.047-0.156c-0.021-0.062-0.031-0.12-0.031-0.172c0-0.052-0.011-0.109-0.031-0.172
		c0-0.042-0.005-0.083-0.016-0.125c-0.011-0.042-0.037-0.114-0.078-0.219c0.042-0.125,0.062-0.203,0.062-0.234
		s-0.011-0.067-0.031-0.109c0.042-0.312,0.057-0.526,0.047-0.641c-0.011-0.114-0.037-0.234-0.078-0.359
		c0.042-0.104,0.078-0.172,0.109-0.203s0.047-0.067,0.047-0.109c0-0.167,0.005-0.281,0.016-0.344
		c0.01-0.062,0.036-0.114,0.078-0.156c0.021-0.042,0.042-0.099,0.062-0.172c0.021-0.073,0.042-0.141,0.062-0.203
		c0.021-0.083,0.042-0.156,0.062-0.219l0.125-0.25c0.083-0.167,0.146-0.271,0.188-0.312c0.042-0.146,0.078-0.26,0.109-0.344
		c0.031-0.083,0.067-0.188,0.109-0.312c0.062-0.125,0.13-0.255,0.203-0.391c0.073-0.135,0.172-0.255,0.297-0.359
		c0.083-0.188,0.161-0.328,0.234-0.422c0.073-0.094,0.151-0.192,0.234-0.297c0.104-0.125,0.167-0.208,0.188-0.25
		c0.021-0.042,0.031-0.094,0.031-0.156c0.146-0.104,0.245-0.182,0.297-0.234c0.052-0.052,0.109-0.141,0.172-0.266
		c0.188-0.125,0.328-0.219,0.422-0.281s0.192-0.104,0.297-0.125c0.062-0.062,0.135-0.125,0.219-0.188
		c0.083-0.062,0.167-0.114,0.25-0.156c0.25-0.125,0.411-0.198,0.484-0.219c0.073-0.021,0.13-0.042,0.172-0.062
		c0.25-0.083,0.458-0.146,0.625-0.188c0.167-0.042,0.344-0.062,0.531-0.062c0.042-0.021,0.083-0.036,0.125-0.047
		c0.042-0.01,0.125-0.036,0.25-0.078c0.125,0.042,0.213,0.058,0.266,0.047c0.052-0.01,0.099-0.016,0.141-0.016
		c0.354,0,0.604-0.005,0.75-0.016c0.146-0.01,0.292-0.005,0.438,0.016c0.188,0.062,0.354,0.125,0.5,0.188
		c0.021,0.021,0.114,0.031,0.281,0.031c0.083,0,0.156,0.011,0.219,0.031l0.375,0.094c0.188,0.083,0.359,0.162,0.516,0.234
		c0.156,0.073,0.276,0.162,0.359,0.266c0.042-0.188,0.052-0.338,0.031-0.453c-0.021-0.114-0.031-0.203-0.031-0.266
		c-0.042-0.229-0.068-0.385-0.078-0.469c-0.011-0.083-0.016-0.167-0.016-0.25c0-0.167-0.005-0.328-0.016-0.484
		c-0.011-0.156-0.026-0.297-0.047-0.422c-0.104-0.125-0.136-0.25-0.094-0.375c0.042-0.167,0.062-0.271,0.062-0.312
		c0-0.042-0.011-0.083-0.031-0.125c-0.125-0.292-0.203-0.542-0.234-0.75c-0.031-0.208-0.058-0.406-0.078-0.594
		c-0.125-0.021-0.24-0.016-0.344,0.016c-0.104,0.031-0.198,0.047-0.281,0.047c-0.104,0-0.219-0.021-0.344-0.062
		c-0.271,0-0.438-0.005-0.5-0.016c-0.062-0.01-0.115-0.026-0.156-0.047c-0.25-0.021-0.427-0.036-0.531-0.047
		c-0.104-0.01-0.208-0.036-0.312-0.078c-0.229-0.104-0.386-0.198-0.469-0.281c-0.083-0.083-0.146-0.146-0.188-0.188l-0.031-0.625
		c0.021-0.062,0.062-0.125,0.125-0.188c0.083-0.125,0.198-0.219,0.344-0.281c0.167-0.083,0.271-0.141,0.312-0.172
		c0.042-0.031,0.094-0.099,0.156-0.203c0.104,0,0.177-0.005,0.219-0.016c0.042-0.01,0.125-0.067,0.25-0.172
		c0.167,0,0.266-0.005,0.297-0.016c0.031-0.01,0.067-0.026,0.109-0.047c0.229-0.042,0.37-0.067,0.422-0.078
		c0.052-0.01,0.099-0.026,0.141-0.047c0.104-0.021,0.188-0.042,0.25-0.062c0.062-0.021,0.146-0.031,0.25-0.031
		c0.271,0,0.469-0.021,0.594-0.062c0.104,0.021,0.192,0.031,0.266,0.031c0.073,0,0.141,0,0.203,0
		c0.25,0.042,0.422,0.068,0.516,0.078c0.094,0.011,0.172,0.037,0.234,0.078c0.062,0.021,0.13,0.047,0.203,0.078
		c0.073,0.031,0.182,0.068,0.328,0.109c0.167,0.25,0.281,0.49,0.344,0.719c0.062,0.229,0.114,0.458,0.156,0.688
		c0.042,0.208,0.067,0.417,0.078,0.625c0.01,0.208,0.026,0.396,0.047,0.562c0.042,0.104,0.083,0.219,0.125,0.344
		c0.042,0.083,0.062,0.141,0.062,0.172s0.01,0.099,0.031,0.203c0.021,0.208,0.036,0.354,0.047,0.438
		c0.01,0.083,0.026,0.146,0.047,0.188c0.021,0.062,0.031,0.12,0.031,0.172c0,0.052,0.01,0.12,0.031,0.203v0.375
		c0,0.104-0.005,0.203-0.016,0.297c-0.011,0.094-0.005,0.193,0.016,0.297c0.042,0.208,0.067,0.391,0.078,0.547
		c0.01,0.156,0.005,0.308-0.016,0.453c-0.042,0.208-0.062,0.339-0.062,0.391c0,0.052,0,0.089,0,0.109
		c0.042,0.188,0.073,0.323,0.094,0.406c0.021,0.083,0.031,0.156,0.031,0.219c-0.021,0.104-0.026,0.177-0.016,0.219
		c0.01,0.042,0.016,0.083,0.016,0.125c-0.042,0.208-0.068,0.37-0.078,0.484c-0.011,0.115-0.016,0.224-0.016,0.328
		c0.042,0.188,0.067,0.308,0.078,0.359c0.01,0.052,0.036,0.12,0.078,0.203c-0.021,0.188-0.031,0.302-0.031,0.344
		c0,0.042,0.01,0.062,0.031,0.062c0.021,0.229,0.036,0.401,0.047,0.516c0.01,0.115,0.005,0.224-0.016,0.328
		c0,0.146-0.005,0.266-0.016,0.359c-0.011,0.094-0.026,0.183-0.047,0.266c0.021,0.188,0.036,0.328,0.047,0.422
		c0.01,0.094,0.005,0.172-0.016,0.234c0.042,0.167,0.067,0.281,0.078,0.344c0.01,0.062,0.016,0.115,0.016,0.156
		c0,0.188,0.01,0.339,0.031,0.453c0.021,0.115,0.031,0.255,0.031,0.422c0.042,0.167,0.062,0.271,0.062,0.312
		c0,0.042,0,0.073,0,0.094v0.469c-0.021,0.167-0.016,0.276,0.016,0.328c0.031,0.052,0.067,0.109,0.109,0.172v0.5
		c0.083,0.333,0.141,0.63,0.172,0.891c0.031,0.261,0.057,0.505,0.078,0.734c0.292-0.104,0.578-0.146,0.859-0.125
		c0.281,0.021,0.505,0.062,0.672,0.125c0.083,0.021,0.229,0.073,0.438,0.156c0.104,0.042,0.208,0.094,0.312,0.156
		c0.104,0.062,0.239,0.177,0.406,0.344c0.021,0.208,0.036,0.354,0.047,0.438C151.186,24.157,151.191,24.219,151.191,24.261z
		 M145.379,20.229c-0.021-0.333-0.031-0.604-0.031-0.812c0-0.208-0.021-0.396-0.062-0.562c-0.042-0.104-0.062-0.188-0.062-0.25
		s0-0.125,0-0.188c0.021-0.167,0.031-0.271,0.031-0.312c0-0.042,0.01-0.073,0.031-0.094c-0.062-0.167-0.073-0.364-0.031-0.594
		c-0.021-0.104-0.031-0.203-0.031-0.297s0-0.172,0-0.234c-0.042-0.083-0.068-0.161-0.078-0.234c-0.011-0.073-0.026-0.13-0.047-0.172
		c-0.021-0.062-0.042-0.114-0.062-0.156l-0.312-0.75c-0.104-0.062-0.198-0.125-0.281-0.188c-0.083-0.042-0.156-0.083-0.219-0.125
		c-0.062-0.042-0.104-0.073-0.125-0.094c-0.188-0.083-0.302-0.146-0.344-0.188c-0.042-0.042-0.094-0.083-0.156-0.125l-0.531-0.281
		c-0.021,0-0.073,0.005-0.156,0.016c-0.083,0.011-0.177-0.005-0.281-0.047c-0.104-0.021-0.193-0.036-0.266-0.047
		c-0.073-0.01-0.13-0.016-0.172-0.016c-0.146,0.021-0.25,0.037-0.312,0.047c-0.062,0.011-0.136,0.016-0.219,0.016
		c-0.292,0-0.5,0.021-0.625,0.062c-0.021,0-0.136,0.094-0.344,0.281c-0.083,0.083-0.177,0.136-0.281,0.156
		c-0.104,0.021-0.208,0.062-0.312,0.125c-0.062,0.042-0.115,0.104-0.156,0.188c-0.042,0.083-0.083,0.136-0.125,0.156
		c-0.167,0.104-0.276,0.177-0.328,0.219c-0.052,0.042-0.099,0.083-0.141,0.125c-0.062,0.083-0.125,0.162-0.188,0.234
		c-0.062,0.073-0.136,0.13-0.219,0.172c-0.104,0.125-0.177,0.208-0.219,0.25c-0.042,0.042-0.083,0.104-0.125,0.188l-0.25,0.25
		c-0.104,0.208-0.183,0.38-0.234,0.516c-0.052,0.136-0.099,0.255-0.141,0.359c-0.062,0.25-0.104,0.552-0.125,0.906
		c-0.042,0.167-0.062,0.261-0.062,0.281c0,0.021,0,0.042,0,0.062v0.438l-0.031,0.594l0.031,0.344
		c0.042,0.062,0.083,0.125,0.125,0.188c0.042,0.062,0.073,0.146,0.094,0.25c0.042,0.167,0.062,0.281,0.062,0.344
		c0.042,0.104,0.078,0.177,0.109,0.219c0.031,0.042,0.067,0.094,0.109,0.156c0.042,0.062,0.088,0.12,0.141,0.172
		c0.052,0.052,0.182,0.12,0.391,0.203c0.104,0.125,0.182,0.214,0.234,0.266c0.052,0.052,0.099,0.099,0.141,0.141
		c0.167,0.062,0.297,0.104,0.391,0.125c0.094,0.021,0.213,0.042,0.359,0.062c0.062,0.104,0.13,0.167,0.203,0.188
		c0.073,0.021,0.13,0.031,0.172,0.031c0.062,0,0.125,0.005,0.188,0.016c0.062,0.011,0.125,0.016,0.188,0.016
		c0.25-0.062,0.417-0.104,0.5-0.125c0.229-0.042,0.417-0.104,0.562-0.188c0.229,0.042,0.396,0.042,0.5,0
		c0.125-0.062,0.203-0.104,0.234-0.125c0.031-0.021,0.057-0.042,0.078-0.062l0.219-0.125l0.125-0.062
		c0.083-0.042,0.135-0.062,0.156-0.062c0.042-0.042,0.104-0.083,0.188-0.125c0.083-0.042,0.177-0.062,0.281-0.062
		c0.042-0.042,0.094-0.078,0.156-0.109s0.135-0.057,0.219-0.078c0.104-0.062,0.177-0.114,0.219-0.156
		c0.042-0.042,0.094-0.114,0.156-0.219c0.083-0.062,0.146-0.12,0.188-0.172c0.042-0.052,0.094-0.099,0.156-0.141
		c0.146-0.104,0.255-0.192,0.328-0.266c0.073-0.073,0.13-0.141,0.172-0.203c0.125-0.104,0.198-0.172,0.219-0.203
		C145.368,20.308,145.379,20.271,145.379,20.229z"/>
</g>
<g>
	<path d="M4.187,33.943c0.287-0.419,0.841-0.629,1.661-0.629c0.078,0,0.157,0.002,0.239,0.007s0.175,0.011,0.28,0.021v1.121
		c-0.129-0.009-0.222-0.015-0.28-0.017s-0.112-0.003-0.163-0.003c-0.378,0-0.604,0.097-0.678,0.291s-0.11,0.687-0.11,1.48h1.23
		v0.971h-1.23V43.5H3.92v-6.316H2.901v-0.971H3.92v-1.148C3.938,34.554,4.027,34.18,4.187,33.943z"/>
	<path d="M7.536,36.179h1.169v1.265c0.096-0.246,0.331-0.546,0.704-0.899s0.804-0.53,1.292-0.53c0.023,0,0.062,0.002,0.116,0.007
		s0.148,0.014,0.28,0.027v1.299c-0.073-0.014-0.14-0.023-0.202-0.027s-0.129-0.007-0.202-0.007c-0.62,0-1.096,0.199-1.429,0.598
		s-0.499,0.858-0.499,1.377V43.5h-1.23V36.179z"/>
	<path d="M16.686,36.38c0.485,0.244,0.854,0.56,1.107,0.947c0.245,0.369,0.408,0.8,0.489,1.292c0.073,0.337,0.109,0.875,0.109,1.613
		h-5.325c0.022,0.745,0.197,1.342,0.522,1.792c0.325,0.45,0.83,0.675,1.512,0.675c0.638,0,1.146-0.213,1.526-0.639
		c0.212-0.247,0.363-0.533,0.452-0.858h1.21c-0.032,0.269-0.138,0.568-0.318,0.899s-0.381,0.601-0.603,0.81
		c-0.371,0.365-0.83,0.611-1.377,0.738c-0.294,0.073-0.626,0.109-0.998,0.109c-0.906,0-1.673-0.332-2.303-0.995
		c-0.63-0.663-0.944-1.592-0.944-2.786c0-1.176,0.317-2.13,0.951-2.864c0.634-0.734,1.463-1.101,2.486-1.101
		C15.701,36.015,16.202,36.137,16.686,36.38z M17.127,39.255c-0.05-0.533-0.165-0.959-0.346-1.278
		c-0.334-0.592-0.893-0.889-1.674-0.889c-0.561,0-1.03,0.204-1.41,0.612c-0.38,0.408-0.581,0.926-0.604,1.555H17.127z"/>
	<path d="M24.472,36.38c0.485,0.244,0.854,0.56,1.107,0.947c0.245,0.369,0.408,0.8,0.489,1.292c0.073,0.337,0.109,0.875,0.109,1.613
		h-5.325c0.022,0.745,0.197,1.342,0.522,1.792c0.325,0.45,0.83,0.675,1.512,0.675c0.638,0,1.146-0.213,1.526-0.639
		c0.212-0.247,0.363-0.533,0.452-0.858h1.21c-0.032,0.269-0.138,0.568-0.318,0.899s-0.381,0.601-0.603,0.81
		c-0.371,0.365-0.83,0.611-1.377,0.738c-0.294,0.073-0.626,0.109-0.998,0.109c-0.906,0-1.673-0.332-2.303-0.995
		c-0.63-0.663-0.944-1.592-0.944-2.786c0-1.176,0.317-2.13,0.951-2.864c0.634-0.734,1.463-1.101,2.486-1.101
		C23.487,36.015,23.988,36.137,24.472,36.38z M24.913,39.255c-0.05-0.533-0.165-0.959-0.346-1.278
		c-0.334-0.592-0.893-0.889-1.674-0.889c-0.561,0-1.03,0.204-1.41,0.612c-0.38,0.408-0.581,0.926-0.604,1.555H24.913z"/>
	<path d="M31.523,36.213h1.203v0.971c0.247-0.333,0.516-0.59,0.809-0.772c0.416-0.273,0.905-0.41,1.467-0.41
		c0.832,0,1.538,0.318,2.118,0.954c0.581,0.636,0.871,1.544,0.871,2.724c0,1.595-0.419,2.734-1.256,3.418
		c-0.531,0.433-1.148,0.649-1.853,0.649c-0.554,0-1.018-0.121-1.393-0.362c-0.22-0.137-0.464-0.372-0.734-0.704v3.739h-1.23V36.213z
		 M36.153,41.952c0.382-0.481,0.573-1.2,0.573-2.157c0-0.583-0.084-1.084-0.254-1.504c-0.32-0.807-0.905-1.21-1.756-1.21
		c-0.855,0-1.44,0.426-1.756,1.278c-0.169,0.456-0.254,1.035-0.254,1.736c0,0.565,0.084,1.046,0.254,1.442
		c0.32,0.756,0.905,1.135,1.756,1.135C35.292,42.673,35.771,42.433,36.153,41.952z"/>
	<path d="M40.643,36.179v4.86c0,0.374,0.058,0.679,0.173,0.916c0.213,0.438,0.61,0.656,1.191,0.656c0.834,0,1.402-0.383,1.705-1.148
		c0.164-0.41,0.246-0.973,0.246-1.688v-3.596h1.23V43.5h-1.162l0.014-1.08c-0.157,0.278-0.351,0.513-0.584,0.704
		c-0.46,0.383-1.02,0.574-1.677,0.574c-1.024,0-1.722-0.349-2.093-1.046c-0.201-0.374-0.302-0.873-0.302-1.497v-4.977H40.643z"/>
	<path d="M46.651,42.529l4.348-5.25h-4.026v-1.101h5.681v1.005l-4.319,5.216h4.449V43.5h-6.132V42.529z"/>
	<path d="M53.651,42.529l4.348-5.25h-4.026v-1.101h5.681v1.005l-4.319,5.216h4.449V43.5h-6.132V42.529z"/>
	<path d="M61.232,33.458h1.23V43.5h-1.23V33.458z"/>
	<path d="M68.831,36.38c0.485,0.244,0.854,0.56,1.107,0.947c0.245,0.369,0.408,0.8,0.489,1.292c0.073,0.337,0.109,0.875,0.109,1.613
		h-5.325c0.022,0.745,0.197,1.342,0.522,1.792c0.325,0.45,0.83,0.675,1.512,0.675c0.638,0,1.146-0.213,1.526-0.639
		c0.212-0.247,0.363-0.533,0.452-0.858h1.21c-0.032,0.269-0.138,0.568-0.318,0.899s-0.381,0.601-0.603,0.81
		c-0.371,0.365-0.83,0.611-1.377,0.738c-0.294,0.073-0.626,0.109-0.998,0.109c-0.906,0-1.673-0.332-2.303-0.995
		c-0.63-0.663-0.944-1.592-0.944-2.786c0-1.176,0.317-2.13,0.951-2.864c0.634-0.734,1.463-1.101,2.486-1.101
		C67.846,36.015,68.346,36.137,68.831,36.38z M69.271,39.255c-0.05-0.533-0.165-0.959-0.346-1.278
		c-0.334-0.592-0.893-0.889-1.674-0.889c-0.561,0-1.03,0.204-1.41,0.612c-0.38,0.408-0.581,0.926-0.604,1.555H69.271z"/>
	<path d="M72.826,41.203c0.037,0.41,0.142,0.725,0.314,0.943c0.316,0.396,0.865,0.595,1.646,0.595c0.465,0,0.875-0.099,1.228-0.297
		s0.53-0.505,0.53-0.919c0-0.314-0.141-0.554-0.424-0.718c-0.181-0.1-0.537-0.216-1.07-0.349l-0.994-0.246
		c-0.634-0.155-1.102-0.328-1.403-0.52c-0.537-0.333-0.806-0.793-0.806-1.381c0-0.693,0.253-1.253,0.759-1.682
		c0.505-0.428,1.186-0.643,2.04-0.643c1.118,0,1.923,0.324,2.417,0.971c0.31,0.41,0.46,0.852,0.451,1.326h-1.162
		c-0.023-0.276-0.124-0.528-0.301-0.754c-0.29-0.322-0.791-0.483-1.505-0.483c-0.476,0-0.836,0.088-1.081,0.266
		c-0.245,0.177-0.367,0.411-0.367,0.702c0,0.318,0.161,0.572,0.483,0.763c0.186,0.114,0.459,0.214,0.822,0.3l0.829,0.198
		c0.901,0.214,1.504,0.421,1.811,0.622c0.479,0.314,0.718,0.809,0.718,1.483c0,0.652-0.25,1.214-0.751,1.688
		s-1.263,0.711-2.288,0.711c-1.103,0-1.883-0.247-2.342-0.742c-0.459-0.495-0.705-1.106-0.737-1.835H72.826z"/>
	<path d="M86.908,39.069c0.283-0.037,0.472-0.155,0.567-0.355c0.055-0.11,0.082-0.268,0.082-0.474c0-0.42-0.149-0.726-0.447-0.916
		s-0.725-0.285-1.279-0.285c-0.641,0-1.096,0.174-1.364,0.522c-0.15,0.192-0.248,0.479-0.293,0.859h-1.148
		c0.023-0.905,0.315-1.535,0.877-1.889s1.214-0.531,1.956-0.531c0.86,0,1.559,0.164,2.096,0.492
		c0.533,0.328,0.799,0.838,0.799,1.531v4.218c0,0.127,0.026,0.23,0.079,0.307c0.052,0.078,0.163,0.116,0.332,0.116
		c0.055,0,0.116-0.003,0.185-0.01s0.141-0.017,0.219-0.031v0.909c-0.191,0.055-0.337,0.089-0.438,0.103s-0.237,0.021-0.41,0.021
		c-0.424,0-0.731-0.15-0.923-0.451c-0.1-0.159-0.171-0.385-0.212-0.677c-0.25,0.328-0.611,0.613-1.08,0.854
		c-0.469,0.242-0.987,0.362-1.552,0.362c-0.679,0-1.234-0.206-1.665-0.618c-0.431-0.412-0.646-0.928-0.646-1.547
		c0-0.678,0.212-1.204,0.636-1.577c0.424-0.374,0.98-0.604,1.668-0.69L86.908,39.069z M84.317,42.394
		c0.26,0.205,0.567,0.307,0.923,0.307c0.433,0,0.852-0.1,1.258-0.3c0.684-0.332,1.025-0.876,1.025-1.631v-0.989
		c-0.15,0.096-0.343,0.176-0.58,0.24c-0.236,0.064-0.468,0.11-0.696,0.137l-0.744,0.095c-0.446,0.06-0.781,0.153-1.005,0.28
		c-0.38,0.214-0.571,0.555-0.571,1.023C83.928,41.909,84.058,42.188,84.317,42.394z"/>
	<path d="M90.771,36.179h1.169v1.039c0.346-0.428,0.713-0.736,1.101-0.923s0.818-0.28,1.292-0.28c1.039,0,1.741,0.362,2.105,1.087
		c0.201,0.396,0.301,0.964,0.301,1.702V43.5h-1.251v-4.614c0-0.447-0.066-0.807-0.198-1.08c-0.219-0.456-0.615-0.684-1.189-0.684
		c-0.292,0-0.531,0.03-0.718,0.089c-0.337,0.1-0.633,0.301-0.889,0.602c-0.205,0.242-0.338,0.491-0.4,0.749
		s-0.092,0.625-0.092,1.104V43.5h-1.23V36.179z"/>
	<path d="M102.579,36.404c0.218,0.137,0.465,0.376,0.742,0.718v-3.698h1.183V43.5h-1.107v-1.019
		c-0.286,0.451-0.625,0.777-1.015,0.978c-0.391,0.201-0.838,0.301-1.342,0.301c-0.812,0-1.516-0.343-2.111-1.029
		s-0.892-1.599-0.892-2.738c0-1.066,0.271-1.99,0.813-2.772s1.318-1.172,2.326-1.172C101.735,36.049,102.202,36.167,102.579,36.404z
		 M99.833,41.894c0.331,0.529,0.861,0.793,1.591,0.793c0.567,0,1.033-0.245,1.398-0.735c0.365-0.49,0.547-1.193,0.547-2.109
		c0-0.925-0.188-1.61-0.564-2.054s-0.841-0.667-1.395-0.667c-0.617,0-1.116,0.237-1.5,0.711s-0.575,1.171-0.575,2.092
		C99.336,40.708,99.501,41.365,99.833,41.894z"/>
	<path d="M110.232,36.179h1.217v1.039c0.292-0.36,0.556-0.622,0.793-0.786c0.406-0.278,0.866-0.417,1.381-0.417
		c0.583,0,1.053,0.144,1.408,0.431c0.201,0.164,0.383,0.406,0.547,0.725c0.273-0.392,0.595-0.683,0.964-0.872
		s0.784-0.284,1.244-0.284c0.984,0,1.654,0.355,2.01,1.066c0.191,0.383,0.287,0.898,0.287,1.545V43.5h-1.278v-5.086
		c0-0.488-0.122-0.823-0.366-1.005s-0.541-0.273-0.892-0.273c-0.483,0-0.899,0.162-1.248,0.485s-0.523,0.864-0.523,1.62V43.5h-1.251
		v-4.778c0-0.497-0.059-0.859-0.178-1.087c-0.187-0.342-0.536-0.513-1.046-0.513c-0.465,0-0.888,0.18-1.268,0.54
		s-0.571,1.012-0.571,1.955V43.5h-1.23V36.179z"/>
	<path d="M125.818,39.069c0.283-0.037,0.472-0.155,0.567-0.355c0.055-0.11,0.082-0.268,0.082-0.474c0-0.42-0.149-0.726-0.447-0.916
		s-0.725-0.285-1.279-0.285c-0.641,0-1.096,0.174-1.364,0.522c-0.15,0.192-0.248,0.479-0.293,0.859h-1.148
		c0.023-0.905,0.315-1.535,0.877-1.889s1.214-0.531,1.956-0.531c0.86,0,1.559,0.164,2.096,0.492
		c0.533,0.328,0.799,0.838,0.799,1.531v4.218c0,0.127,0.026,0.23,0.079,0.307c0.052,0.078,0.163,0.116,0.332,0.116
		c0.055,0,0.116-0.003,0.185-0.01s0.141-0.017,0.219-0.031v0.909c-0.191,0.055-0.337,0.089-0.438,0.103s-0.237,0.021-0.41,0.021
		c-0.424,0-0.731-0.15-0.923-0.451c-0.1-0.159-0.171-0.385-0.212-0.677c-0.25,0.328-0.611,0.613-1.08,0.854
		c-0.469,0.242-0.987,0.362-1.552,0.362c-0.679,0-1.234-0.206-1.665-0.618c-0.431-0.412-0.646-0.928-0.646-1.547
		c0-0.678,0.212-1.204,0.636-1.577c0.424-0.374,0.98-0.604,1.668-0.69L125.818,39.069z M123.228,42.394
		c0.26,0.205,0.567,0.307,0.923,0.307c0.433,0,0.852-0.1,1.258-0.3c0.684-0.332,1.025-0.876,1.025-1.631v-0.989
		c-0.15,0.096-0.343,0.176-0.58,0.24c-0.236,0.064-0.468,0.11-0.696,0.137l-0.744,0.095c-0.446,0.06-0.781,0.153-1.005,0.28
		c-0.38,0.214-0.571,0.555-0.571,1.023C122.838,41.909,122.968,42.188,123.228,42.394z"/>
	<path d="M129.134,42.529l4.348-5.25h-4.026v-1.101h5.681v1.005l-4.319,5.216h4.449V43.5h-6.132V42.529z"/>
	<path d="M141.203,36.38c0.485,0.244,0.854,0.56,1.107,0.947c0.245,0.369,0.408,0.8,0.489,1.292
		c0.073,0.337,0.109,0.875,0.109,1.613h-5.325c0.022,0.745,0.197,1.342,0.522,1.792c0.325,0.45,0.83,0.675,1.512,0.675
		c0.638,0,1.146-0.213,1.526-0.639c0.212-0.247,0.363-0.533,0.452-0.858h1.21c-0.032,0.269-0.138,0.568-0.318,0.899
		s-0.381,0.601-0.603,0.81c-0.371,0.365-0.83,0.611-1.377,0.738c-0.294,0.073-0.626,0.109-0.998,0.109
		c-0.906,0-1.673-0.332-2.303-0.995c-0.63-0.663-0.944-1.592-0.944-2.786c0-1.176,0.317-2.13,0.951-2.864
		c0.634-0.734,1.463-1.101,2.486-1.101C140.218,36.015,140.718,36.137,141.203,36.38z M141.644,39.255
		c-0.05-0.533-0.165-0.959-0.346-1.278c-0.334-0.592-0.893-0.889-1.674-0.889c-0.561,0-1.03,0.204-1.41,0.612
		c-0.38,0.408-0.581,0.926-0.604,1.555H141.644z"/>
	<path d="M145.198,41.203c0.037,0.41,0.142,0.725,0.314,0.943c0.316,0.396,0.865,0.595,1.646,0.595c0.465,0,0.875-0.099,1.228-0.297
		s0.53-0.505,0.53-0.919c0-0.314-0.141-0.554-0.424-0.718c-0.181-0.1-0.537-0.216-1.07-0.349l-0.994-0.246
		c-0.634-0.155-1.102-0.328-1.403-0.52c-0.537-0.333-0.806-0.793-0.806-1.381c0-0.693,0.253-1.253,0.759-1.682
		c0.505-0.428,1.186-0.643,2.04-0.643c1.118,0,1.923,0.324,2.417,0.971c0.31,0.41,0.46,0.852,0.451,1.326h-1.162
		c-0.023-0.276-0.124-0.528-0.301-0.754c-0.29-0.322-0.791-0.483-1.505-0.483c-0.476,0-0.836,0.088-1.081,0.266
		c-0.245,0.177-0.367,0.411-0.367,0.702c0,0.318,0.161,0.572,0.483,0.763c0.186,0.114,0.459,0.214,0.822,0.3l0.829,0.198
		c0.901,0.214,1.504,0.421,1.811,0.622c0.479,0.314,0.718,0.809,0.718,1.483c0,0.652-0.25,1.214-0.751,1.688
		s-1.263,0.711-2.288,0.711c-1.103,0-1.883-0.247-2.342-0.742c-0.459-0.495-0.705-1.106-0.737-1.835H145.198z"/>
</g>
</svg>
